IntelOneMono-MediumItalic-quadratic.ufo
<glyph name="percent" format="2">
  <advance width="614"/>
  <unicode hex="0025"/>
  <outline>
    <contour>
      <point x="419" y="557" type="qcurve"/>
      <point x="419" y="459"/>
      <point x="311" y="318"/>
      <point x="228" y="318" type="qcurve"/>
      <point x="169" y="318"/>
      <point x="107" y="376"/>
      <point x="107" y="431" type="qcurve"/>
      <point x="107" y="529"/>
      <point x="215" y="670"/>
      <point x="299" y="670" type="qcurve"/>
      <point x="358" y="670"/>
      <point x="419" y="613"/>
    </contour>
    <contour>
      <point x="718" y="654" type="line"/>
      <point x="443" y="377" type="line"/>
      <point x="398" y="377" type="line"/>
      <point x="601" y="660" type="line"/>
      <point x="719" y="660" type="line"/>
    </contour>
    <contour>
      <point x="346" y="550" type="qcurve"/>
      <point x="346" y="578"/>
      <point x="320" y="606"/>
      <point x="293" y="606" type="qcurve"/>
      <point x="246" y="606"/>
      <point x="180" y="501"/>
      <point x="180" y="438" type="qcurve"/>
      <point x="180" y="410"/>
      <point x="206" y="383"/>
      <point x="233" y="383" type="qcurve"/>
      <point x="280" y="383"/>
      <point x="346" y="487"/>
    </contour>
    <contour>
      <point x="560" y="224" type="qcurve"/>
      <point x="560" y="126"/>
      <point x="452" y="-15"/>
      <point x="369" y="-15" type="qcurve"/>
      <point x="309" y="-15"/>
      <point x="248" y="42"/>
      <point x="248" y="98" type="qcurve"/>
      <point x="248" y="196"/>
      <point x="356" y="337"/>
      <point x="439" y="337" type="qcurve"/>
      <point x="499" y="337"/>
      <point x="560" y="280"/>
    </contour>
    <contour>
      <point x="-50" y="1" type="line"/>
      <point x="224" y="278" type="line"/>
      <point x="269" y="278" type="line"/>
      <point x="66" y="-5" type="line"/>
      <point x="-51" y="-5" type="line"/>
    </contour>
    <contour>
      <point x="487" y="217" type="qcurve"/>
      <point x="487" y="245"/>
      <point x="461" y="272"/>
      <point x="434" y="272" type="qcurve"/>
      <point x="387" y="272"/>
      <point x="321" y="168"/>
      <point x="321" y="105" type="qcurve"/>
      <point x="321" y="77"/>
      <point x="347" y="49"/>
      <point x="374" y="49" type="qcurve"/>
      <point x="421" y="49"/>
      <point x="487" y="154"/>
    </contour>
  </outline>
</glyph>
<glyph name="asterisk" format="2">
  <advance width="614"/>
  <unicode hex="002A"/>
  <outline>
    <contour>
      <point x="168" y="157" type="qcurve"/>
      <point x="103" y="231" type="line"/>
      <point x="118" y="244"/>
      <point x="158" y="272"/>
      <point x="203" y="299" type="qcurve"/>
      <point x="250" y="327"/>
      <point x="298" y="360"/>
      <point x="318" y="376" type="qcurve"/>
      <point x="300" y="382"/>
      <point x="254" y="390"/>
      <point x="208" y="394" type="qcurve"/>
      <point x="163" y="398"/>
      <point x="123" y="405"/>
      <point x="108" y="411" type="qcurve"/>
      <point x="175" y="516" type="line"/>
      <point x="190" y="510"/>
      <point x="221" y="490"/>
      <point x="252" y="464" type="qcurve"/>
      <point x="284" y="438"/>
      <point x="320" y="414"/>
      <point x="337" y="406" type="qcurve"/>
      <point x="343" y="429"/>
      <point x="350" y="480"/>
      <point x="352" y="528" type="qcurve"/>
      <point x="354" y="572"/>
      <point x="359" y="613"/>
      <point x="364" y="630" type="qcurve"/>
      <point x="477" y="630" type="line"/>
      <point x="472" y="613"/>
      <point x="453" y="570"/>
      <point x="430" y="526" type="qcurve"/>
      <point x="405" y="478"/>
      <point x="383" y="429"/>
      <point x="376" y="407" type="qcurve"/>
      <point x="397" y="415"/>
      <point x="445" y="439"/>
      <point x="490" y="465" type="qcurve"/>
      <point x="534" y="489"/>
      <point x="575" y="509"/>
      <point x="592" y="515" type="qcurve"/>
      <point x="608" y="409" type="line"/>
      <point x="590" y="403"/>
      <point x="545" y="395"/>
      <point x="497" y="390" type="qcurve"/>
      <point x="449" y="385"/>
      <point x="399" y="376"/>
      <point x="377" y="370" type="qcurve"/>
      <point x="387" y="355"/>
      <point x="416" y="323"/>
      <point x="446" y="295" type="qcurve"/>
      <point x="477" y="268"/>
      <point x="501" y="239"/>
      <point x="509" y="226" type="qcurve"/>
      <point x="402" y="157" type="line"/>
      <point x="394" y="170"/>
      <point x="383" y="207"/>
      <point x="374" y="248" type="qcurve"/>
      <point x="366" y="291"/>
      <point x="352" y="333"/>
      <point x="344" y="350" type="qcurve"/>
      <point x="325" y="333"/>
      <point x="286" y="291"/>
      <point x="251" y="247" type="qcurve"/>
      <point x="217" y="207"/>
      <point x="184" y="170"/>
    </contour>
  </outline>
</glyph>
<glyph name="plus" format="2">
  <advance width="614"/>
  <unicode hex="002B"/>
  <outline>
    <contour>
      <point x="269" y="283" type="line"/>
      <point x="80" y="283" type="line"/>
      <point x="106" y="374" type="line"/>
      <point x="295" y="374" type="line"/>
      <point x="352" y="573" type="line"/>
      <point x="456" y="573" type="line"/>
      <point x="399" y="374" type="line"/>
      <point x="587" y="374" type="line"/>
      <point x="561" y="283" type="line"/>
      <point x="373" y="283" type="line"/>
      <point x="315" y="83" type="line"/>
      <point x="211" y="83" type="line"/>
    </contour>
  </outline>
</glyph>
<glyph name="comma" format="2">
  <advance width="614"/>
  <unicode hex="002C"/>
  <outline>
    <contour>
      <point x="116" y="-161" type="qcurve"/>
      <point x="4" y="-161" type="line"/>
      <point x="4" y="-159" type="line"/>
      <point x="117" y="-56"/>
      <point x="184" y="41"/>
      <point x="217" y="145" type="qcurve"/>
      <point x="389" y="145" type="line"/>
      <point x="333" y="14"/>
      <point x="237" y="-90"/>
    </contour>
  </outline>
</glyph>
<glyph name="hyphen" format="2">
  <advance width="614"/>
  <unicode hex="002D"/>
  <outline>
    <contour>
      <point x="117" y="223" type="line"/>
      <point x="148" y="333" type="line"/>
      <point x="522" y="333" type="line"/>
      <point x="491" y="223" type="line"/>
    </contour>
  </outline>
</glyph>
<glyph name="period" format="2">
  <advance width="614"/>
  <unicode hex="002E"/>
  <outline>
    <contour>
      <point x="373" y="101" type="qcurve"/>
      <point x="373" y="48"/>
      <point x="310" y="-15"/>
      <point x="253" y="-15" type="qcurve"/>
      <point x="205" y="-15"/>
      <point x="155" y="21"/>
      <point x="155" y="57" type="qcurve"/>
      <point x="155" y="108"/>
      <point x="219" y="172"/>
      <point x="274" y="172" type="qcurve"/>
      <point x="323" y="172"/>
      <point x="373" y="136"/>
    </contour>
  </outline>
</glyph>
<glyph name="slash" format="2">
  <advance width="614"/>
  <unicode hex="002F"/>
  <outline>
    <contour>
      <point x="610" y="755" type="line"/>
      <point x="725" y="755" type="line"/>
      <point x="57" y="-100" type="line"/>
      <point x="-59" y="-100" type="line"/>
    </contour>
  </outline>
</glyph>
<glyph name="two" format="2">
  <advance width="614"/>
  <unicode hex="0032"/>
  <outline>
    <contour>
      <point x="484" y="0" type="line"/>
      <point x="10" y="0" type="line"/>
      <point x="10" y="57" type="line"/>
      <point x="314" y="304" type="line"/>
      <point x="417" y="389"/>
      <point x="490" y="474"/>
      <point x="490" y="510" type="qcurve"/>
      <point x="490" y="539"/>
      <point x="450" y="573"/>
      <point x="417" y="573" type="qcurve"/>
      <point x="374" y="573"/>
      <point x="279" y="524"/>
      <point x="194" y="462" type="qcurve"/>
      <point x="141" y="538" type="line"/>
      <point x="235" y="612"/>
      <point x="363" y="670"/>
      <point x="431" y="670" type="qcurve"/>
      <point x="507" y="670"/>
      <point x="608" y="585"/>
      <point x="608" y="519" type="qcurve"/>
      <point x="608" y="459"/>
      <point x="518" y="347"/>
      <point x="413" y="267" type="qcurve"/>
      <point x="192" y="97" type="line"/>
      <point x="192" y="94" type="line"/>
      <point x="511" y="94" type="line"/>
    </contour>
  </outline>
</glyph>
<glyph name="five" format="2">
  <advance width="614"/>
  <unicode hex="0035"/>
  <outline>
    <contour>
      <point x="382" y="422" type="qcurve"/>
      <point x="458" y="422"/>
      <point x="545" y="346"/>
      <point x="545" y="278" type="qcurve"/>
      <point x="545" y="155"/>
      <point x="346" y="18"/>
      <point x="146" y="1" type="qcurve"/>
      <point x="17" y="-10" type="line"/>
      <point x="34" y="88" type="line"/>
      <point x="156" y="99" type="line"/>
      <point x="288" y="111"/>
      <point x="428" y="197"/>
      <point x="428" y="263" type="qcurve"/>
      <point x="428" y="297"/>
      <point x="382" y="335"/>
      <point x="339" y="335" type="qcurve"/>
      <point x="310" y="335"/>
      <point x="237" y="312"/>
      <point x="191" y="288" type="qcurve"/>
      <point x="116" y="302" type="line"/>
      <point x="115" y="307" type="line"/>
      <point x="238" y="655" type="line"/>
      <point x="618" y="655" type="line"/>
      <point x="590" y="561" type="line"/>
      <point x="305" y="561" type="line"/>
      <point x="242" y="389" type="line"/>
      <point x="277" y="406"/>
      <point x="345" y="422"/>
    </contour>
  </outline>
</glyph>
<glyph name="semicolon" format="2">
  <advance width="614"/>
  <unicode hex="003B"/>
  <outline>
    <contour>
      <point x="475" y="419" type="qcurve"/>
      <point x="475" y="370"/>
      <point x="407" y="308"/>
      <point x="351" y="308" type="qcurve"/>
      <point x="306" y="308"/>
      <point x="258" y="342"/>
      <point x="258" y="374" type="qcurve"/>
      <point x="258" y="422"/>
      <point x="327" y="484"/>
      <point x="382" y="484" type="qcurve"/>
      <point x="428" y="484"/>
      <point x="475" y="451"/>
    </contour>
    <contour>
      <point x="105" y="-161" type="qcurve"/>
      <point x="-6" y="-161" type="line"/>
      <point x="-6" y="-159" type="line"/>
      <point x="103" y="-52"/>
      <point x="170" y="44"/>
      <point x="207" y="145" type="qcurve"/>
      <point x="379" y="145" type="line"/>
      <point x="320" y="21"/>
      <point x="225" y="-84"/>
    </contour>
  </outline>
</glyph>
<glyph name="less" format="2">
  <advance width="614"/>
  <unicode hex="003C"/>
  <outline>
    <contour>
      <point x="74" y="270" type="line"/>
      <point x="103" y="373" type="line"/>
      <point x="639" y="575" type="line"/>
      <point x="606" y="464" type="line"/>
      <point x="192" y="315" type="line"/>
      <point x="521" y="165" type="line"/>
      <point x="493" y="67" type="line"/>
    </contour>
  </outline>
</glyph>
<glyph name="at" format="2">
  <advance width="614"/>
  <unicode hex="0040"/>
  <outline>
    <contour>
      <point x="405" y="-11" type="qcurve"/>
      <point x="413" y="-62" type="line"/>
      <point x="366" y="-71"/>
      <point x="297" y="-79"/>
      <point x="262" y="-79" type="qcurve"/>
      <point x="152" y="-79"/>
      <point x="48" y="18"/>
      <point x="48" y="120" type="qcurve"/>
      <point x="48" y="239"/>
      <point x="167" y="566"/>
      <point x="241" y="641" type="qcurve"/>
      <point x="284" y="684"/>
      <point x="389" y="725"/>
      <point x="454" y="725" type="qcurve"/>
      <point x="553" y="725"/>
      <point x="633" y="655"/>
      <point x="633" y="574" type="qcurve"/>
      <point x="633" y="486"/>
      <point x="559" y="229"/>
      <point x="514" y="184" type="qcurve"/>
      <point x="485" y="155"/>
      <point x="417" y="129"/>
      <point x="370" y="129" type="qcurve"/>
      <point x="297" y="129"/>
      <point x="225" y="188"/>
      <point x="225" y="248" type="qcurve"/>
      <point x="225" y="302"/>
      <point x="270" y="424"/>
      <point x="303" y="457" type="qcurve"/>
      <point x="332" y="487"/>
      <point x="414" y="515"/>
      <point x="472" y="515" type="qcurve"/>
      <point x="574" y="515" type="line"/>
      <point x="576" y="527"/>
      <point x="578" y="552"/>
      <point x="578" y="564" type="qcurve"/>
      <point x="578" y="623"/>
      <point x="520" y="674"/>
      <point x="451" y="674" type="qcurve"/>
      <point x="398" y="674"/>
      <point x="313" y="637"/>
      <point x="274" y="598" type="qcurve"/>
      <point x="213" y="537"/>
      <point x="105" y="234"/>
      <point x="105" y="133" type="qcurve"/>
      <point x="105" y="50"/>
      <point x="185" y="-28"/>
      <point x="271" y="-28" type="qcurve"/>
      <point x="300" y="-28"/>
      <point x="366" y="-20"/>
    </contour>
    <contour>
      <point x="360" y="410" type="qcurve"/>
      <point x="336" y="386"/>
      <point x="304" y="299"/>
      <point x="304" y="260" type="qcurve"/>
      <point x="304" y="228"/>
      <point x="337" y="200"/>
      <point x="375" y="200" type="qcurve"/>
      <point x="409" y="200"/>
      <point x="458" y="217"/>
      <point x="477" y="236" type="qcurve"/>
      <point x="499" y="259"/>
      <point x="544" y="372"/>
      <point x="561" y="444" type="qcurve"/>
      <point x="447" y="444" type="line"/>
      <point x="420" y="444"/>
      <point x="377" y="427"/>
    </contour>
  </outline>
</glyph>
<glyph name="A" format="2">
  <advance width="614"/>
  <unicode hex="0041"/>
  <outline>
    <contour>
      <point x="178" y="155" type="line"/>
      <point x="87" y="0" type="line"/>
      <point x="-32" y="0" type="line"/>
      <point x="358" y="655" type="line"/>
      <point x="496" y="655" type="line"/>
      <point x="513" y="0" type="line"/>
      <point x="404" y="0" type="line"/>
      <point x="402" y="155" type="line"/>
    </contour>
    <contour>
      <point x="400" y="545" type="line"/>
      <point x="228" y="244" type="line"/>
      <point x="404" y="244" type="line"/>
    </contour>
  </outline>
</glyph>
<glyph name="B" format="2">
  <advance width="614"/>
  <unicode hex="0042"/>
  <outline>
    <contour>
      <point x="18" y="0" type="line"/>
      <point x="206" y="655" type="line"/>
      <point x="458" y="655" type="line"/>
      <point x="540" y="655"/>
      <point x="631" y="586"/>
      <point x="631" y="525" type="qcurve"/>
      <point x="631" y="452"/>
      <point x="529" y="355"/>
      <point x="431" y="335" type="qcurve"/>
      <point x="431" y="331" type="line"/>
      <point x="491" y="318"/>
      <point x="556" y="248"/>
      <point x="556" y="196" type="qcurve"/>
      <point x="556" y="101"/>
      <point x="410" y="0"/>
      <point x="270" y="0" type="qcurve"/>
    </contour>
    <contour>
      <point x="510" y="501" type="qcurve"/>
      <point x="510" y="534"/>
      <point x="465" y="568"/>
      <point x="420" y="568" type="qcurve"/>
      <point x="292" y="568" type="line"/>
      <point x="236" y="374" type="line"/>
      <point x="334" y="379" type="line"/>
      <point x="418" y="384"/>
      <point x="510" y="448"/>
    </contour>
    <contour>
      <point x="443" y="202" type="qcurve"/>
      <point x="443" y="243"/>
      <point x="379" y="288"/>
      <point x="313" y="291" type="qcurve"/>
      <point x="214" y="296" type="line"/>
      <point x="154" y="86" type="line"/>
      <point x="290" y="86" type="line"/>
      <point x="362" y="86"/>
      <point x="443" y="149"/>
    </contour>
  </outline>
</glyph>
<glyph name="C" format="2">
  <advance width="614"/>
  <unicode hex="0043"/>
  <outline>
    <contour>
      <point x="276" y="-15" type="qcurve"/>
      <point x="172" y="-15"/>
      <point x="63" y="99"/>
      <point x="63" y="209" type="qcurve"/>
      <point x="63" y="294"/>
      <point x="117" y="457"/>
      <point x="166" y="522" type="qcurve"/>
      <point x="220" y="594"/>
      <point x="367" y="670"/>
      <point x="452" y="670" type="qcurve"/>
      <point x="515" y="670"/>
      <point x="610" y="632"/>
      <point x="662" y="587" type="qcurve"/>
      <point x="599" y="505" type="line"/>
      <point x="554" y="545"/>
      <point x="489" y="576"/>
      <point x="445" y="576" type="qcurve"/>
      <point x="389" y="576"/>
      <point x="285" y="509"/>
      <point x="246" y="448" type="qcurve"/>
      <point x="214" y="398"/>
      <point x="179" y="277"/>
      <point x="179" y="214" type="qcurve"/>
      <point x="179" y="151"/>
      <point x="236" y="79"/>
      <point x="285" y="79" type="qcurve"/>
      <point x="326" y="79"/>
      <point x="414" y="111"/>
      <point x="480" y="150" type="qcurve"/>
      <point x="528" y="68" type="line"/>
      <point x="457" y="24"/>
      <point x="338" y="-15"/>
    </contour>
  </outline>
</glyph>
<glyph name="D" format="2">
  <advance width="614"/>
  <unicode hex="0044"/>
  <outline>
    <contour>
      <point x="17" y="0" type="line"/>
      <point x="205" y="655" type="line"/>
      <point x="298" y="655" type="line"/>
      <point x="392" y="655"/>
      <point x="516" y="620"/>
      <point x="553" y="583" type="qcurve"/>
      <point x="582" y="554"/>
      <point x="611" y="475"/>
      <point x="611" y="425" type="qcurve"/>
      <point x="611" y="339"/>
      <point x="553" y="192"/>
      <point x="496" y="136" type="qcurve"/>
      <point x="428" y="68"/>
      <point x="225" y="0"/>
      <point x="92" y="0" type="qcurve"/>
    </contour>
    <contour>
      <point x="495" y="423" type="qcurve"/>
      <point x="495" y="499"/>
      <point x="404" y="563"/>
      <point x="297" y="563" type="qcurve"/>
      <point x="291" y="563" type="line"/>
      <point x="157" y="95" type="line"/>
      <point x="309" y="104"/>
      <point x="495" y="287"/>
    </contour>
  </outline>
</glyph>
<glyph name="E" format="2">
  <advance width="614"/>
  <unicode hex="0045"/>
  <outline>
    <contour>
      <point x="26" y="0" type="line"/>
      <point x="214" y="655" type="line"/>
      <point x="659" y="655" type="line"/>
      <point x="632" y="561" type="line"/>
      <point x="300" y="561" type="line"/>
      <point x="247" y="377" type="line"/>
      <point x="535" y="377" type="line"/>
      <point x="508" y="284" type="line"/>
      <point x="221" y="284" type="line"/>
      <point x="166" y="94" type="line"/>
      <point x="502" y="94" type="line"/>
      <point x="475" y="0" type="line"/>
    </contour>
  </outline>
</glyph>
<glyph name="G" format="2">
  <advance width="614"/>
  <unicode hex="0047"/>
  <outline>
    <contour>
      <point x="634" y="653" type="qcurve"/>
      <point x="614" y="559" type="line"/>
      <point x="586" y="565"/>
      <point x="534" y="570"/>
      <point x="505" y="570" type="qcurve"/>
      <point x="429" y="570"/>
      <point x="306" y="521"/>
      <point x="263" y="476" type="qcurve"/>
      <point x="220" y="430"/>
      <point x="173" y="302"/>
      <point x="173" y="223" type="qcurve"/>
      <point x="173" y="149"/>
      <point x="248" y="79"/>
      <point x="328" y="79" type="qcurve"/>
      <point x="345" y="79"/>
      <point x="384" y="83"/>
      <point x="403" y="86" type="qcurve"/>
      <point x="460" y="274" type="line"/>
      <point x="323" y="274" type="line"/>
      <point x="348" y="362" type="line"/>
      <point x="593" y="362" type="line"/>
      <point x="487" y="9" type="line"/>
      <point x="440" y="-3"/>
      <point x="355" y="-15"/>
      <point x="309" y="-15" type="qcurve"/>
      <point x="184" y="-15"/>
      <point x="57" y="105"/>
      <point x="57" y="223" type="qcurve"/>
      <point x="57" y="317"/>
      <point x="122" y="483"/>
      <point x="182" y="543" type="qcurve"/>
      <point x="242" y="603"/>
      <point x="405" y="665"/>
      <point x="503" y="665" type="qcurve"/>
      <point x="532" y="665"/>
      <point x="593" y="659"/>
    </contour>
  </outline>
</glyph>
<glyph name="J" format="2">
  <advance width="614"/>
  <unicode hex="004A"/>
  <outline>
    <contour>
      <point x="280" y="-14" type="qcurve"/>
      <point x="207" y="-14"/>
      <point x="96" y="53"/>
      <point x="22" y="139" type="qcurve"/>
      <point x="98" y="209" type="line"/>
      <point x="158" y="142"/>
      <point x="236" y="88"/>
      <point x="278" y="88" type="qcurve"/>
      <point x="327" y="88"/>
      <point x="389" y="147"/>
      <point x="407" y="208" type="qcurve"/>
      <point x="535" y="655" type="line"/>
      <point x="648" y="655" type="line"/>
      <point x="517" y="195" type="line"/>
      <point x="486" y="86"/>
      <point x="371" y="-14"/>
    </contour>
  </outline>
</glyph>
<glyph name="L" format="2">
  <advance width="614"/>
  <unicode hex="004C"/>
  <outline>
    <contour>
      <point x="26" y="0" type="line"/>
      <point x="214" y="655" type="line"/>
      <point x="327" y="655" type="line"/>
      <point x="166" y="93" type="line"/>
      <point x="507" y="93" type="line"/>
      <point x="480" y="0" type="line"/>
    </contour>
  </outline>
</glyph>
<glyph name="M" format="2">
  <advance width="614"/>
  <unicode hex="004D"/>
  <outline>
    <contour>
      <point x="531" y="655" type="line"/>
      <point x="650" y="655" type="line"/>
      <point x="489" y="0" type="line"/>
      <point x="384" y="0" type="line"/>
      <point x="516" y="513" type="line"/>
      <point x="299" y="173" type="line"/>
      <point x="278" y="173" type="line"/>
      <point x="257" y="511" type="line"/>
      <point x="94" y="0" type="line"/>
      <point x="-10" y="0" type="line"/>
      <point x="208" y="655" type="line"/>
      <point x="320" y="655" type="line"/>
      <point x="338" y="357" type="line"/>
    </contour>
  </outline>
</glyph>
<glyph name="P" format="2">
  <advance width="614"/>
  <unicode hex="0050"/>
  <outline>
    <contour>
      <point x="20" y="0" type="line"/>
      <point x="208" y="655" type="line"/>
      <point x="438" y="655" type="line"/>
      <point x="534" y="655"/>
      <point x="639" y="562"/>
      <point x="639" y="479" type="qcurve"/>
      <point x="639" y="426"/>
      <point x="604" y="339"/>
      <point x="571" y="306" type="qcurve"/>
      <point x="529" y="263"/>
      <point x="403" y="222"/>
      <point x="313" y="222" type="qcurve"/>
      <point x="197" y="222" type="line"/>
      <point x="133" y="0" type="line"/>
    </contour>
    <contour>
      <point x="519" y="474" type="qcurve"/>
      <point x="519" y="519"/>
      <point x="468" y="561"/>
      <point x="413" y="561" type="qcurve"/>
      <point x="294" y="561" type="line"/>
      <point x="223" y="313" type="line"/>
      <point x="319" y="313" type="line"/>
      <point x="413" y="313"/>
      <point x="519" y="399"/>
    </contour>
  </outline>
</glyph>
<glyph name="R" format="2">
  <advance width="614"/>
  <unicode hex="0052"/>
  <outline>
    <contour>
      <point x="447" y="145" type="qcurve"/>
      <point x="524" y="4" type="line"/>
      <point x="523" y="0" type="line"/>
      <point x="396" y="0" type="line"/>
      <point x="311" y="168" type="line"/>
      <point x="287" y="216"/>
      <point x="244" y="249"/>
      <point x="205" y="253" type="qcurve"/>
      <point x="133" y="0" type="line"/>
      <point x="20" y="0" type="line"/>
      <point x="208" y="655" type="line"/>
      <point x="435" y="655" type="line"/>
      <point x="526" y="655"/>
      <point x="625" y="578"/>
      <point x="625" y="508" type="qcurve"/>
      <point x="625" y="402"/>
      <point x="486" y="285"/>
      <point x="348" y="275" type="qcurve"/>
      <point x="348" y="269" type="line"/>
      <point x="381" y="246"/>
      <point x="422" y="193"/>
    </contour>
    <contour>
      <point x="505" y="494" type="qcurve"/>
      <point x="505" y="530"/>
      <point x="459" y="565"/>
      <point x="412" y="565" type="qcurve"/>
      <point x="294" y="565" type="line"/>
      <point x="229" y="336" type="line"/>
      <point x="296" y="340" type="line"/>
      <point x="401" y="347"/>
      <point x="505" y="423"/>
    </contour>
  </outline>
</glyph>
<glyph name="T" format="2">
  <advance width="614"/>
  <unicode hex="0054"/>
  <outline>
    <contour>
      <point x="341" y="561" type="line"/>
      <point x="135" y="561" type="line"/>
      <point x="163" y="655" type="line"/>
      <point x="686" y="655" type="line"/>
      <point x="658" y="561" type="line"/>
      <point x="454" y="561" type="line"/>
      <point x="293" y="0" type="line"/>
      <point x="180" y="0" type="line"/>
    </contour>
  </outline>
</glyph>
<glyph name="U" format="2">
  <advance width="614"/>
  <unicode hex="0055"/>
  <outline>
    <contour>
      <point x="282" y="87" type="qcurve"/>
      <point x="336" y="87"/>
      <point x="405" y="150"/>
      <point x="423" y="215" type="qcurve"/>
      <point x="550" y="655" type="line"/>
      <point x="662" y="655" type="line"/>
      <point x="533" y="206" type="line"/>
      <point x="500" y="91"/>
      <point x="372" y="-15"/>
      <point x="268" y="-15" type="qcurve"/>
      <point x="169" y="-15"/>
      <point x="64" y="78"/>
      <point x="64" y="167" type="qcurve"/>
      <point x="64" y="190"/>
      <point x="75" y="247"/>
      <point x="88" y="290" type="qcurve"/>
      <point x="193" y="655" type="line"/>
      <point x="306" y="655" type="line"/>
      <point x="190" y="249" type="line"/>
      <point x="184" y="229"/>
      <point x="178" y="195"/>
      <point x="178" y="178" type="qcurve"/>
      <point x="178" y="134"/>
      <point x="232" y="87"/>
    </contour>
  </outline>
</glyph>
<glyph name="V" format="2">
  <advance width="614"/>
  <unicode hex="0056"/>
  <outline>
    <contour>
      <point x="172" y="0" type="line"/>
      <point x="155" y="655" type="line"/>
      <point x="266" y="655" type="line"/>
      <point x="272" y="128" type="line"/>
      <point x="581" y="655" type="line"/>
      <point x="700" y="655" type="line"/>
      <point x="309" y="0" type="line"/>
    </contour>
  </outline>
</glyph>
<glyph name="W" format="2">
  <advance width="614"/>
  <unicode hex="0057"/>
  <outline>
    <contour>
      <point x="693" y="655" type="line"/>
      <point x="420" y="0" type="line"/>
      <point x="316" y="0" type="line"/>
      <point x="330" y="322" type="line"/>
      <point x="159" y="0" type="line"/>
      <point x="58" y="0" type="line"/>
      <point x="162" y="655" type="line"/>
      <point x="268" y="655" type="line"/>
      <point x="188" y="195" type="line"/>
      <point x="375" y="531" type="line"/>
      <point x="400" y="531" type="line"/>
      <point x="395" y="180" type="line"/>
      <point x="579" y="655" type="line"/>
    </contour>
  </outline>
</glyph>
<glyph name="Y" format="2">
  <advance width="614"/>
  <unicode hex="0059"/>
  <outline>
    <contour>
      <point x="572" y="655" type="line"/>
      <point x="705" y="655" type="line"/>
      <point x="375" y="274" type="line"/>
      <point x="296" y="0" type="line"/>
      <point x="184" y="0" type="line"/>
      <point x="264" y="280" type="line"/>
      <point x="150" y="655" type="line"/>
      <point x="268" y="655" type="line"/>
      <point x="344" y="384" type="line"/>
    </contour>
  </outline>
</glyph>
<glyph name="Z" format="2">
  <advance width="614"/>
  <unicode hex="005A"/>
  <outline>
    <contour>
      <point x="491" y="0" type="line"/>
      <point x="12" y="0" type="line"/>
      <point x="12" y="54" type="line"/>
      <point x="469" y="559" type="line"/>
      <point x="469" y="561" type="line"/>
      <point x="157" y="561" type="line"/>
      <point x="184" y="655" type="line"/>
      <point x="643" y="655" type="line"/>
      <point x="643" y="601" type="line"/>
      <point x="180" y="95" type="line"/>
      <point x="180" y="93" type="line"/>
      <point x="518" y="93" type="line"/>
    </contour>
  </outline>
</glyph>
<glyph name="bracketleft" format="2">
  <advance width="614"/>
  <unicode hex="005B"/>
  <outline>
    <contour>
      <point x="426" y="-141" type="line"/>
      <point x="66" y="-141" type="line"/>
      <point x="334" y="792" type="line"/>
      <point x="693" y="792" type="line"/>
      <point x="666" y="699" type="line"/>
      <point x="420" y="699" type="line"/>
      <point x="206" y="-47" type="line"/>
      <point x="453" y="-47" type="line"/>
    </contour>
  </outline>
</glyph>
<glyph name="underscore" format="2">
  <advance width="614"/>
  <unicode hex="005F"/>
  <outline>
    <contour>
      <point x="-27" y="-131" type="line"/>
      <point x="3" y="-26" type="line"/>
      <point x="461" y="-26" type="line"/>
      <point x="431" y="-131" type="line"/>
    </contour>
  </outline>
</glyph>
<glyph name="grave" format="2">
  <advance width="614"/>
  <unicode hex="0060"/>
  <outline>
    <contour>
      <point x="489" y="385" type="line"/>
      <point x="385" y="385" type="line"/>
      <point x="260" y="710" type="line"/>
      <point x="425" y="710" type="line"/>
    </contour>
  </outline>
</glyph>
<glyph name="b" format="2">
  <advance width="614"/>
  <unicode hex="0062"/>
  <outline>
    <contour>
      <point x="221" y="710" type="line"/>
      <point x="333" y="710" type="line"/>
      <point x="248" y="414" type="line"/>
      <point x="291" y="449"/>
      <point x="370" y="482"/>
      <point x="412" y="482" type="qcurve"/>
      <point x="484" y="482"/>
      <point x="575" y="382"/>
      <point x="575" y="300" type="qcurve"/>
      <point x="575" y="166"/>
      <point x="386" y="-8"/>
      <point x="237" y="-8" type="qcurve"/>
      <point x="182" y="-8"/>
      <point x="75" y="17"/>
      <point x="29" y="41" type="qcurve"/>
    </contour>
    <contour>
      <point x="458" y="286" type="qcurve"/>
      <point x="458" y="334"/>
      <point x="409" y="389"/>
      <point x="366" y="389" type="qcurve"/>
      <point x="333" y="389"/>
      <point x="267" y="355"/>
      <point x="220" y="316" type="qcurve"/>
      <point x="158" y="99" type="line"/>
      <point x="177" y="92"/>
      <point x="218" y="85"/>
      <point x="241" y="85" type="qcurve"/>
      <point x="337" y="85"/>
      <point x="458" y="202"/>
    </contour>
  </outline>
</glyph>
<glyph name="c" format="2">
  <advance width="614"/>
  <unicode hex="0063"/>
  <outline>
    <contour>
      <point x="376" y="390" type="qcurve"/>
      <point x="337" y="390"/>
      <point x="266" y="360"/>
      <point x="238" y="332" type="qcurve"/>
      <point x="209" y="303"/>
      <point x="174" y="222"/>
      <point x="174" y="183" type="qcurve"/>
      <point x="174" y="135"/>
      <point x="232" y="80"/>
      <point x="281" y="80" type="qcurve"/>
      <point x="320" y="80"/>
      <point x="407" y="105"/>
      <point x="475" y="135" type="qcurve"/>
      <point x="509" y="48" type="line"/>
      <point x="447" y="16"/>
      <point x="331" y="-14"/>
      <point x="264" y="-14" type="qcurve"/>
      <point x="164" y="-14"/>
      <point x="51" y="84"/>
      <point x="51" y="172" type="qcurve"/>
      <point x="51" y="233"/>
      <point x="99" y="348"/>
      <point x="143" y="392" type="qcurve"/>
      <point x="188" y="437"/>
      <point x="302" y="484"/>
      <point x="366" y="484" type="qcurve"/>
      <point x="429" y="484"/>
      <point x="531" y="455"/>
      <point x="590" y="422" type="qcurve"/>
      <point x="543" y="333" type="line"/>
      <point x="483" y="366"/>
      <point x="412" y="390"/>
    </contour>
  </outline>
</glyph>
<glyph name="e" format="2">
  <advance width="614"/>
  <unicode hex="0065"/>
  <outline>
    <contour>
      <point x="423" y="81" type="qcurve"/>
      <point x="396" y="-10" type="line"/>
      <point x="322" y="-10"/>
      <point x="215" y="0"/>
      <point x="177" y="10" type="qcurve"/>
      <point x="113" y="27"/>
      <point x="57" y="99"/>
      <point x="57" y="169" type="qcurve"/>
      <point x="57" y="229"/>
      <point x="113" y="348"/>
      <point x="163" y="394" type="qcurve"/>
      <point x="212" y="438"/>
      <point x="332" y="486"/>
      <point x="397" y="486" type="qcurve"/>
      <point x="481" y="486"/>
      <point x="576" y="414"/>
      <point x="576" y="352" type="qcurve"/>
      <point x="576" y="278"/>
      <point x="458" y="202"/>
      <point x="331" y="190" type="qcurve"/>
      <point x="170" y="177" type="line"/>
      <point x="170" y="175"/>
      <point x="170" y="174"/>
      <point x="170" y="172" type="qcurve"/>
      <point x="170" y="117"/>
      <point x="272" y="81"/>
    </contour>
    <contour>
      <point x="465" y="343" type="qcurve"/>
      <point x="465" y="368"/>
      <point x="422" y="397"/>
      <point x="386" y="397" type="qcurve"/>
      <point x="319" y="397"/>
      <point x="204" y="313"/>
      <point x="181" y="249" type="qcurve"/>
      <point x="330" y="265" type="line"/>
      <point x="399" y="272"/>
      <point x="465" y="310"/>
    </contour>
  </outline>
</glyph>
<glyph name="f" format="2">
  <advance width="614"/>
  <unicode hex="0066"/>
  <outline>
    <contour>
      <point x="257" y="365" type="line"/>
      <point x="105" y="365" type="line"/>
      <point x="132" y="460" type="line"/>
      <point x="285" y="460" type="line"/>
      <point x="297" y="503" type="line"/>
      <point x="330" y="618"/>
      <point x="437" y="702"/>
      <point x="562" y="712" type="qcurve"/>
      <point x="665" y="720" type="line"/>
      <point x="665" y="624" type="line"/>
      <point x="545" y="616" type="line"/>
      <point x="481" y="612"/>
      <point x="424" y="568"/>
      <point x="408" y="510" type="qcurve"/>
      <point x="394" y="460" type="line"/>
      <point x="577" y="460" type="line"/>
      <point x="550" y="365" type="line"/>
      <point x="369" y="365" type="line"/>
      <point x="264" y="0" type="line"/>
      <point x="152" y="0" type="line"/>
    </contour>
  </outline>
</glyph>
<glyph name="h" format="2">
  <advance width="614"/>
  <unicode hex="0068"/>
  <outline>
    <contour>
      <point x="224" y="710" type="line"/>
      <point x="336" y="710" type="line"/>
      <point x="236" y="361" type="line"/>
      <point x="315" y="429"/>
      <point x="407" y="479"/>
      <point x="458" y="479" type="qcurve"/>
      <point x="509" y="479"/>
      <point x="565" y="428"/>
      <point x="565" y="383" type="qcurve"/>
      <point x="565" y="368"/>
      <point x="559" y="333"/>
      <point x="553" y="311" type="qcurve"/>
      <point x="463" y="0" type="line"/>
      <point x="351" y="0" type="line"/>
      <point x="436" y="297" type="line"/>
      <point x="440" y="311"/>
      <point x="444" y="330"/>
      <point x="444" y="338" type="qcurve"/>
      <point x="444" y="356"/>
      <point x="422" y="375"/>
      <point x="403" y="375" type="qcurve"/>
      <point x="372" y="375"/>
      <point x="289" y="317"/>
      <point x="201" y="238" type="qcurve"/>
      <point x="133" y="0" type="line"/>
      <point x="20" y="0" type="line"/>
    </contour>
  </outline>
</glyph>
<glyph name="i" format="2">
  <advance width="614"/>
  <unicode hex="0069"/>
  <outline>
    <contour>
      <point x="514" y="678" type="qcurve"/>
      <point x="514" y="639"/>
      <point x="458" y="592"/>
      <point x="410" y="592" type="qcurve"/>
      <point x="371" y="592"/>
      <point x="329" y="624"/>
      <point x="329" y="654" type="qcurve"/>
      <point x="329" y="692"/>
      <point x="385" y="740"/>
      <point x="433" y="740" type="qcurve"/>
      <point x="472" y="740"/>
      <point x="514" y="708"/>
    </contour>
    <contour>
      <point x="37" y="0" type="line"/>
      <point x="64" y="95" type="line"/>
      <point x="217" y="95" type="line"/>
      <point x="315" y="376" type="line"/>
      <point x="165" y="376" type="line"/>
      <point x="192" y="471" type="line"/>
      <point x="460" y="471" type="line"/>
      <point x="329" y="95" type="line"/>
      <point x="500" y="95" type="line"/>
      <point x="473" y="0" type="line"/>
    </contour>
  </outline>
</glyph>
<glyph name="k" format="2">
  <advance width="614"/>
  <unicode hex="006B"/>
  <outline>
    <contour>
      <point x="234" y="710" type="line"/>
      <point x="346" y="710" type="line"/>
      <point x="216" y="256" type="line"/>
      <point x="484" y="471" type="line"/>
      <point x="633" y="471" type="line"/>
      <point x="633" y="469" type="line"/>
      <point x="328" y="237" type="line"/>
      <point x="502" y="2" type="line"/>
      <point x="502" y="0" type="line"/>
      <point x="361" y="0" type="line"/>
      <point x="207" y="225" type="line"/>
      <point x="142" y="0" type="line"/>
      <point x="31" y="0" type="line"/>
    </contour>
  </outline>
</glyph>
<glyph name="l" format="2">
  <advance width="614"/>
  <unicode hex="006C"/>
  <outline>
    <contour>
      <point x="194" y="127" type="qcurve"/>
      <point x="194" y="154"/>
      <point x="209" y="220"/>
      <point x="225" y="264" type="qcurve"/>
      <point x="351" y="615" type="line"/>
      <point x="175" y="615" type="line"/>
      <point x="202" y="710" type="line"/>
      <point x="497" y="710" type="line"/>
      <point x="333" y="249" type="line"/>
      <point x="320" y="214"/>
      <point x="310" y="173"/>
      <point x="310" y="152" type="qcurve"/>
      <point x="310" y="121"/>
      <point x="345" y="94"/>
      <point x="387" y="92" type="qcurve"/>
      <point x="499" y="88" type="line"/>
      <point x="471" y="-8" type="line"/>
      <point x="359" y="-5" type="line"/>
      <point x="270" y="-1"/>
      <point x="194" y="60"/>
    </contour>
  </outline>
</glyph>
<glyph name="n" format="2">
  <advance width="614"/>
  <unicode hex="006E"/>
  <outline>
    <contour>
      <point x="155" y="471" type="line"/>
      <point x="256" y="471" type="line"/>
      <point x="229" y="354" type="line"/>
      <point x="311" y="426"/>
      <point x="406" y="479"/>
      <point x="458" y="479" type="qcurve"/>
      <point x="508" y="479"/>
      <point x="565" y="428"/>
      <point x="565" y="383" type="qcurve"/>
      <point x="565" y="368"/>
      <point x="559" y="333"/>
      <point x="553" y="311" type="qcurve"/>
      <point x="463" y="0" type="line"/>
      <point x="351" y="0" type="line"/>
      <point x="436" y="297" type="line"/>
      <point x="440" y="311"/>
      <point x="444" y="331"/>
      <point x="444" y="338" type="qcurve"/>
      <point x="444" y="356"/>
      <point x="422" y="375"/>
      <point x="403" y="375" type="qcurve"/>
      <point x="372" y="375"/>
      <point x="289" y="316"/>
      <point x="201" y="237" type="qcurve"/>
      <point x="133" y="0" type="line"/>
      <point x="20" y="0" type="line"/>
    </contour>
  </outline>
</glyph>
<glyph name="o" format="2">
  <advance width="614"/>
  <unicode hex="006F"/>
  <outline>
    <contour>
      <point x="46" y="189" type="qcurve"/>
      <point x="46" y="251"/>
      <point x="94" y="359"/>
      <point x="135" y="399" type="qcurve"/>
      <point x="177" y="439"/>
      <point x="291" y="486"/>
      <point x="356" y="486" type="qcurve"/>
      <point x="451" y="486"/>
      <point x="568" y="372"/>
      <point x="568" y="281" type="qcurve"/>
      <point x="568" y="219"/>
      <point x="520" y="111"/>
      <point x="478" y="71" type="qcurve"/>
      <point x="436" y="31"/>
      <point x="323" y="-15"/>
      <point x="258" y="-15" type="qcurve"/>
      <point x="163" y="-15"/>
      <point x="46" y="98"/>
    </contour>
    <contour>
      <point x="162" y="194" type="qcurve"/>
      <point x="162" y="142"/>
      <point x="225" y="77"/>
      <point x="276" y="77" type="qcurve"/>
      <point x="347" y="77"/>
      <point x="452" y="197"/>
      <point x="452" y="276" type="qcurve"/>
      <point x="452" y="328"/>
      <point x="389" y="393"/>
      <point x="338" y="393" type="qcurve"/>
      <point x="266" y="393"/>
      <point x="162" y="273"/>
    </contour>
  </outline>
</glyph>
<glyph name="p" format="2">
  <advance width="614"/>
  <unicode hex="0070"/>
  <outline>
    <contour>
      <point x="62" y="-230" type="line"/>
      <point x="-50" y="-230" type="line"/>
      <point x="151" y="471" type="line"/>
      <point x="237" y="471" type="line"/>
      <point x="235" y="405" type="line"/>
      <point x="281" y="445"/>
      <point x="364" y="482"/>
      <point x="410" y="482" type="qcurve"/>
      <point x="483" y="482"/>
      <point x="574" y="383"/>
      <point x="574" y="300" type="qcurve"/>
      <point x="574" y="166"/>
      <point x="384" y="-8"/>
      <point x="234" y="-8" type="qcurve"/>
      <point x="206" y="-8"/>
      <point x="154" y="-2"/>
      <point x="129" y="4" type="qcurve"/>
    </contour>
    <contour>
      <point x="457" y="286" type="qcurve"/>
      <point x="457" y="334"/>
      <point x="407" y="389"/>
      <point x="364" y="389" type="qcurve"/>
      <point x="332" y="389"/>
      <point x="266" y="356"/>
      <point x="219" y="316" type="qcurve"/>
      <point x="157" y="100" type="line"/>
      <point x="175" y="92"/>
      <point x="216" y="85"/>
      <point x="238" y="85" type="qcurve"/>
      <point x="335" y="85"/>
      <point x="457" y="202"/>
    </contour>
  </outline>
</glyph>
<glyph name="q" format="2">
  <advance width="614"/>
  <unicode hex="0071"/>
  <outline>
    <contour>
      <point x="398" y="-230" type="line"/>
      <point x="286" y="-230" type="line"/>
      <point x="369" y="59" type="line"/>
      <point x="326" y="24"/>
      <point x="247" y="-8"/>
      <point x="203" y="-8" type="qcurve"/>
      <point x="132" y="-8"/>
      <point x="41" y="92"/>
      <point x="41" y="174" type="qcurve"/>
      <point x="41" y="308"/>
      <point x="232" y="482"/>
      <point x="383" y="482" type="qcurve"/>
      <point x="436" y="482"/>
      <point x="538" y="458"/>
      <point x="588" y="433" type="qcurve"/>
    </contour>
    <contour>
      <point x="380" y="389" type="qcurve"/>
      <point x="282" y="389"/>
      <point x="159" y="273"/>
      <point x="159" y="188" type="qcurve"/>
      <point x="159" y="140"/>
      <point x="207" y="85"/>
      <point x="248" y="85" type="qcurve"/>
      <point x="282" y="85"/>
      <point x="350" y="119"/>
      <point x="397" y="158" type="qcurve"/>
      <point x="459" y="374" type="line"/>
      <point x="440" y="381"/>
      <point x="400" y="389"/>
    </contour>
  </outline>
</glyph>
<glyph name="u" format="2">
  <advance width="614"/>
  <unicode hex="0075"/>
  <outline>
    <contour>
      <point x="459" y="0" type="line"/>
      <point x="359" y="0" type="line"/>
      <point x="386" y="116" type="line"/>
      <point x="304" y="44"/>
      <point x="209" y="-9"/>
      <point x="157" y="-9" type="qcurve"/>
      <point x="106" y="-9"/>
      <point x="49" y="42"/>
      <point x="49" y="87" type="qcurve"/>
      <point x="49" y="100"/>
      <point x="55" y="135"/>
      <point x="62" y="160" type="qcurve"/>
      <point x="152" y="471" type="line"/>
      <point x="264" y="471" type="line"/>
      <point x="179" y="174" type="line"/>
      <point x="175" y="162"/>
      <point x="171" y="142"/>
      <point x="171" y="132" type="qcurve"/>
      <point x="171" y="115"/>
      <point x="192" y="96"/>
      <point x="211" y="96" type="qcurve"/>
      <point x="243" y="96"/>
      <point x="327" y="154"/>
      <point x="414" y="232" type="qcurve"/>
      <point x="482" y="471" type="line"/>
      <point x="594" y="471" type="line"/>
    </contour>
  </outline>
</glyph>
<glyph name="v" format="2">
  <advance width="614"/>
  <unicode hex="0076"/>
  <outline>
    <contour>
      <point x="172" y="0" type="line"/>
      <point x="113" y="471" type="line"/>
      <point x="227" y="471" type="line"/>
      <point x="260" y="97" type="line"/>
      <point x="508" y="471" type="line"/>
      <point x="636" y="471" type="line"/>
      <point x="309" y="0" type="line"/>
    </contour>
  </outline>
</glyph>
<glyph name="bar" format="2">
  <advance width="614"/>
  <unicode hex="007C"/>
  <outline>
    <contour>
      <point x="405" y="755" type="line"/>
      <point x="508" y="755" type="line"/>
      <point x="262" y="-100" type="line"/>
      <point x="160" y="-100" type="line"/>
    </contour>
  </outline>
</glyph>
<glyph name="exclamdown" format="2">
  <advance width="614"/>
  <unicode hex="00A1"/>
  <outline>
    <contour>
      <point x="534" y="670" type="qcurve"/>
      <point x="534" y="625"/>
      <point x="473" y="575"/>
      <point x="416" y="575" type="qcurve"/>
      <point x="372" y="575"/>
      <point x="328" y="603"/>
      <point x="328" y="630" type="qcurve"/>
      <point x="328" y="675"/>
      <point x="389" y="725"/>
      <point x="446" y="725" type="qcurve"/>
      <point x="490" y="725"/>
      <point x="534" y="698"/>
    </contour>
    <contour>
      <point x="334" y="452" type="line"/>
      <point x="408" y="452" type="line"/>
      <point x="345" y="0" type="line"/>
      <point x="135" y="0" type="line"/>
    </contour>
  </outline>
</glyph>
<glyph name="cent" format="2">
  <advance width="614"/>
  <unicode hex="00A2"/>
  <outline>
    <contour>
      <point x="243" y="-142" type="line"/>
      <point x="165" y="-142" type="line"/>
      <point x="216" y="4" type="line"/>
      <point x="138" y="16"/>
      <point x="54" y="108"/>
      <point x="54" y="182" type="qcurve"/>
      <point x="54" y="242"/>
      <point x="101" y="354"/>
      <point x="145" y="398" type="qcurve"/>
      <point x="189" y="442"/>
      <point x="305" y="490"/>
      <point x="369" y="490" type="qcurve"/>
      <point x="374" y="490"/>
      <point x="382" y="490"/>
      <point x="387" y="490" type="qcurve"/>
      <point x="436" y="632" type="line"/>
      <point x="514" y="632" type="line"/>
      <point x="462" y="481" type="line"/>
      <point x="493" y="474"/>
      <point x="557" y="448"/>
      <point x="593" y="428" type="qcurve"/>
      <point x="546" y="339" type="line"/>
      <point x="488" y="371"/>
      <point x="416" y="395"/>
      <point x="379" y="395" type="qcurve"/>
      <point x="340" y="395"/>
      <point x="267" y="365"/>
      <point x="240" y="338" type="qcurve"/>
      <point x="211" y="309"/>
      <point x="177" y="231"/>
      <point x="177" y="193" type="qcurve"/>
      <point x="177" y="148"/>
      <point x="236" y="95"/>
      <point x="286" y="95" type="qcurve"/>
      <point x="327" y="95"/>
      <point x="416" y="120"/>
      <point x="480" y="150" type="qcurve"/>
      <point x="515" y="62" type="line"/>
      <point x="456" y="32"/>
      <point x="350" y="2"/>
      <point x="293" y="0" type="qcurve"/>
    </contour>
  </outline>
</glyph>
<glyph name="yen" format="2">
  <advance width="614"/>
  <unicode hex="00A5"/>
  <outline>
    <contour>
      <point x="224" y="130" type="line"/>
      <point x="50" y="130" type="line"/>
      <point x="68" y="195" type="line"/>
      <point x="243" y="195" type="line"/>
      <point x="267" y="280" type="line"/>
      <point x="92" y="280" type="line"/>
      <point x="111" y="345" type="line"/>
      <point x="265" y="345" type="line"/>
      <point x="150" y="655" type="line"/>
      <point x="267" y="655" type="line"/>
      <point x="347" y="402" type="line"/>
      <point x="573" y="655" type="line"/>
      <point x="706" y="655" type="line"/>
      <point x="411" y="345" type="line"/>
      <point x="566" y="345" type="line"/>
      <point x="547" y="280" type="line"/>
      <point x="371" y="280" type="line"/>
      <point x="347" y="195" type="line"/>
      <point x="522" y="195" type="line"/>
      <point x="504" y="130" type="line"/>
      <point x="328" y="130" type="line"/>
      <point x="291" y="0" type="line"/>
      <point x="187" y="0" type="line"/>
    </contour>
  </outline>
</glyph>
<glyph name="copyright" format="2">
  <advance width="614"/>
  <unicode hex="00A9"/>
  <outline>
    <contour>
      <point x="622" y="545" type="qcurve"/>
      <point x="622" y="499"/>
      <point x="602" y="382"/>
      <point x="581" y="311" type="qcurve"/>
      <point x="524" y="115"/>
      <point x="358" y="-70"/>
      <point x="235" y="-70" type="qcurve"/>
      <point x="137" y="-70"/>
      <point x="46" y="18"/>
      <point x="46" y="111" type="qcurve"/>
      <point x="46" y="157"/>
      <point x="67" y="274"/>
      <point x="87" y="344" type="qcurve"/>
      <point x="143" y="540"/>
      <point x="309" y="725"/>
      <point x="433" y="725" type="qcurve"/>
      <point x="531" y="725"/>
      <point x="622" y="638"/>
    </contour>
    <contour>
      <point x="430" y="680" type="qcurve"/>
      <point x="325" y="680"/>
      <point x="186" y="512"/>
      <point x="133" y="327" type="qcurve"/>
      <point x="113" y="255"/>
      <point x="94" y="150"/>
      <point x="94" y="109" type="qcurve"/>
      <point x="94" y="40"/>
      <point x="163" y="-25"/>
      <point x="238" y="-25" type="qcurve"/>
      <point x="342" y="-25"/>
      <point x="481" y="143"/>
      <point x="534" y="328" type="qcurve"/>
      <point x="554" y="398"/>
      <point x="573" y="505"/>
      <point x="573" y="547" type="qcurve"/>
      <point x="573" y="615"/>
      <point x="504" y="680"/>
    </contour>
    <contour>
      <point x="284" y="97" type="qcurve"/>
      <point x="235" y="97"/>
      <point x="185" y="159"/>
      <point x="185" y="219" type="qcurve"/>
      <point x="185" y="270"/>
      <point x="212" y="378"/>
      <point x="236" y="426" type="qcurve"/>
      <point x="268" y="488"/>
      <point x="351" y="558"/>
      <point x="393" y="558" type="qcurve"/>
      <point x="437" y="558"/>
      <point x="485" y="511"/>
      <point x="503" y="456" type="qcurve"/>
      <point x="442" y="431" type="line"/>
      <point x="429" y="467"/>
      <point x="408" y="492"/>
      <point x="388" y="492" type="qcurve"/>
      <point x="367" y="492"/>
      <point x="323" y="444"/>
      <point x="304" y="406" type="qcurve"/>
      <point x="284" y="366"/>
      <point x="257" y="267"/>
      <point x="257" y="223" type="qcurve"/>
      <point x="257" y="194"/>
      <point x="276" y="163"/>
      <point x="294" y="163" type="qcurve"/>
      <point x="313" y="163"/>
      <point x="351" y="190"/>
      <point x="380" y="221" type="qcurve"/>
      <point x="428" y="181" type="line"/>
      <point x="387" y="136"/>
      <point x="322" y="97"/>
    </contour>
  </outline>
</glyph>
<glyph name="guillemetleft" format="2">
  <advance width="614"/>
  <unicode hex="00AB"/>
  <outline>
    <contour>
      <point x="242" y="75" type="line"/>
      <point x="216" y="-15" type="line"/>
      <point x="44" y="189" type="line"/>
      <point x="70" y="281" type="line"/>
      <point x="360" y="484" type="line"/>
      <point x="327" y="368" type="line"/>
      <point x="151" y="223" type="line"/>
    </contour>
    <contour>
      <point x="499" y="75" type="line"/>
      <point x="473" y="-15" type="line"/>
      <point x="300" y="169" type="line"/>
      <point x="326" y="261" type="line"/>
      <point x="616" y="484" type="line"/>
      <point x="584" y="368" type="line"/>
      <point x="408" y="207" type="line"/>
    </contour>
  </outline>
</glyph>
<glyph name="plusminus" format="2">
  <advance width="614"/>
  <unicode hex="00B1"/>
  <outline>
    <contour>
      <point x="298" y="385" type="line"/>
      <point x="109" y="385" type="line"/>
      <point x="135" y="476" type="line"/>
      <point x="324" y="476" type="line"/>
      <point x="375" y="655" type="line"/>
      <point x="479" y="655" type="line"/>
      <point x="428" y="476" type="line"/>
      <point x="616" y="476" type="line"/>
      <point x="590" y="385" type="line"/>
      <point x="402" y="385" type="line"/>
      <point x="350" y="205" type="line"/>
      <point x="246" y="205" type="line"/>
    </contour>
    <contour>
      <point x="506" y="91" type="line"/>
      <point x="480" y="0" type="line"/>
      <point x="-1" y="0" type="line"/>
      <point x="25" y="91" type="line"/>
    </contour>
  </outline>
</glyph>
<glyph name="Eth" format="2">
  <advance width="614"/>
  <unicode hex="00D0"/>
  <outline>
    <contour>
      <point x="125" y="298" type="line"/>
      <point x="44" y="298" type="line"/>
      <point x="63" y="362" type="line"/>
      <point x="143" y="362" type="line"/>
      <point x="227" y="655" type="line"/>
      <point x="316" y="655" type="line"/>
      <point x="401" y="655"/>
      <point x="516" y="620"/>
      <point x="553" y="583" type="qcurve"/>
      <point x="581" y="554"/>
      <point x="610" y="474"/>
      <point x="610" y="425" type="qcurve"/>
      <point x="610" y="339"/>
      <point x="552" y="192"/>
      <point x="495" y="136" type="qcurve"/>
      <point x="427" y="68"/>
      <point x="237" y="0"/>
      <point x="114" y="0" type="qcurve"/>
      <point x="39" y="0" type="line"/>
    </contour>
    <contour>
      <point x="360" y="362" type="line"/>
      <point x="342" y="298" type="line"/>
      <point x="237" y="298" type="line"/>
      <point x="179" y="95" type="line"/>
      <point x="321" y="106"/>
      <point x="494" y="288"/>
      <point x="494" y="423" type="qcurve"/>
      <point x="494" y="497"/>
      <point x="416" y="563"/>
      <point x="330" y="563" type="qcurve"/>
      <point x="313" y="563" type="line"/>
      <point x="255" y="362" type="line"/>
    </contour>
  </outline>
</glyph>
<glyph name="Thorn" format="2">
  <advance width="614"/>
  <unicode hex="00DE"/>
  <outline>
    <contour>
      <point x="20" y="0" type="line"/>
      <point x="208" y="655" type="line"/>
      <point x="321" y="655" type="line"/>
      <point x="281" y="516" type="line"/>
      <point x="420" y="516" type="line"/>
      <point x="508" y="516"/>
      <point x="606" y="433"/>
      <point x="606" y="359" type="qcurve"/>
      <point x="606" y="316"/>
      <point x="576" y="239"/>
      <point x="548" y="211" type="qcurve"/>
      <point x="510" y="173"/>
      <point x="392" y="138"/>
      <point x="305" y="138" type="qcurve"/>
      <point x="173" y="138" type="line"/>
      <point x="133" y="0" type="line"/>
    </contour>
    <contour>
      <point x="489" y="355" type="qcurve"/>
      <point x="489" y="389"/>
      <point x="444" y="422"/>
      <point x="399" y="422" type="qcurve"/>
      <point x="254" y="422" type="line"/>
      <point x="199" y="230" type="line"/>
      <point x="336" y="230" type="line"/>
      <point x="408" y="230"/>
      <point x="489" y="298"/>
    </contour>
  </outline>
</glyph>
<glyph name="germandbls" format="2">
  <advance width="614"/>
  <unicode hex="00DF"/>
  <outline>
    <contour>
      <point x="270" y="91" type="line"/>
      <point x="345" y="97" type="line"/>
      <point x="386" y="101"/>
      <point x="428" y="141"/>
      <point x="428" y="177" type="qcurve"/>
      <point x="428" y="203"/>
      <point x="385" y="276"/>
      <point x="337" y="334" type="qcurve"/>
      <point x="350" y="382" type="line"/>
      <point x="383" y="410"/>
      <point x="432" y="454"/>
      <point x="450" y="472" type="qcurve"/>
      <point x="483" y="505"/>
      <point x="509" y="550"/>
      <point x="509" y="574" type="qcurve"/>
      <point x="509" y="601"/>
      <point x="469" y="631"/>
      <point x="432" y="631" type="qcurve"/>
      <point x="373" y="631"/>
      <point x="289" y="557"/>
      <point x="270" y="488" type="qcurve"/>
      <point x="130" y="0" type="line"/>
      <point x="18" y="0" type="line"/>
      <point x="163" y="507" type="line"/>
      <point x="195" y="618"/>
      <point x="333" y="725"/>
      <point x="443" y="725" type="qcurve"/>
      <point x="528" y="725"/>
      <point x="626" y="651"/>
      <point x="626" y="588" type="qcurve"/>
      <point x="626" y="543"/>
      <point x="581" y="465"/>
      <point x="528" y="416" type="qcurve"/>
      <point x="512" y="401"/>
      <point x="473" y="367"/>
      <point x="450" y="348" type="qcurve"/>
      <point x="500" y="290"/>
      <point x="545" y="207"/>
      <point x="545" y="171" type="qcurve"/>
      <point x="545" y="90"/>
      <point x="443" y="6"/>
      <point x="339" y="0" type="qcurve"/>
      <point x="270" y="-4" type="line"/>
    </contour>
  </outline>
</glyph>
<glyph name="ae" format="2">
  <advance width="614"/>
  <unicode hex="00E6"/>
  <outline>
    <contour>
      <point x="339" y="201" type="qcurve"/>
      <point x="336" y="178"/>
      <point x="335" y="160"/>
      <point x="335" y="152" type="qcurve"/>
      <point x="335" y="108"/>
      <point x="398" y="74"/>
      <point x="483" y="74" type="qcurve"/>
      <point x="458" y="-5" type="line"/>
      <point x="374" y="-5"/>
      <point x="277" y="22"/>
      <point x="255" y="52" type="qcurve"/>
      <point x="248" y="52" type="line"/>
      <point x="198" y="20"/>
      <point x="135" y="-5"/>
      <point x="97" y="-5" type="qcurve"/>
      <point x="41" y="-5"/>
      <point x="-16" y="48"/>
      <point x="-16" y="99" type="qcurve"/>
      <point x="-16" y="134"/>
      <point x="7" y="196"/>
      <point x="28" y="217" type="qcurve"/>
      <point x="51" y="241"/>
      <point x="147" y="263"/>
      <point x="259" y="271" type="qcurve"/>
      <point x="270" y="309"/>
      <point x="278" y="345"/>
      <point x="278" y="354" type="qcurve"/>
      <point x="278" y="378"/>
      <point x="254" y="400"/>
      <point x="227" y="400" type="qcurve"/>
      <point x="201" y="400"/>
      <point x="143" y="393"/>
      <point x="97" y="384" type="qcurve"/>
      <point x="125" y="466" type="line"/>
      <point x="159" y="473"/>
      <point x="224" y="480"/>
      <point x="255" y="480" type="qcurve"/>
      <point x="311" y="480"/>
      <point x="364" y="452"/>
      <point x="371" y="418" type="qcurve"/>
      <point x="402" y="448"/>
      <point x="472" y="480"/>
      <point x="507" y="480" type="qcurve"/>
      <point x="558" y="480"/>
      <point x="615" y="427"/>
      <point x="615" y="379" type="qcurve"/>
      <point x="615" y="292"/>
      <point x="486" y="215"/>
    </contour>
    <contour>
      <point x="514" y="361" type="qcurve"/>
      <point x="514" y="380"/>
      <point x="495" y="399"/>
      <point x="475" y="399" type="qcurve"/>
      <point x="443" y="399"/>
      <point x="377" y="324"/>
      <point x="356" y="264" type="qcurve"/>
      <point x="436" y="273"/>
      <point x="514" y="320"/>
    </contour>
    <contour>
      <point x="83" y="114" type="qcurve"/>
      <point x="83" y="93"/>
      <point x="105" y="75"/>
      <point x="130" y="75" type="qcurve"/>
      <point x="150" y="75"/>
      <point x="197" y="94"/>
      <point x="233" y="117" type="qcurve"/>
      <point x="232" y="128"/>
      <point x="231" y="143"/>
      <point x="231" y="150" type="qcurve"/>
      <point x="231" y="162"/>
      <point x="235" y="190"/>
      <point x="240" y="206" type="qcurve"/>
      <point x="176" y="199"/>
      <point x="119" y="186"/>
      <point x="104" y="172" type="qcurve"/>
      <point x="93" y="161"/>
      <point x="83" y="132"/>
    </contour>
  </outline>
</glyph>
<glyph name="eth" format="2">
  <advance width="614"/>
  <unicode hex="00F0"/>
  <outline>
    <contour>
      <point x="452" y="677" type="qcurve"/>
      <point x="548" y="756" type="line"/>
      <point x="587" y="713" type="line"/>
      <point x="498" y="644" type="line"/>
      <point x="546" y="603"/>
      <point x="596" y="487"/>
      <point x="596" y="418" type="qcurve"/>
      <point x="596" y="317"/>
      <point x="532" y="140"/>
      <point x="473" y="81" type="qcurve"/>
      <point x="426" y="34"/>
      <point x="309" y="-15"/>
      <point x="244" y="-15" type="qcurve"/>
      <point x="149" y="-15"/>
      <point x="38" y="79"/>
      <point x="38" y="160" type="qcurve"/>
      <point x="38" y="273"/>
      <point x="190" y="423"/>
      <point x="312" y="423" type="qcurve"/>
      <point x="361" y="423"/>
      <point x="440" y="402"/>
      <point x="483" y="379" type="qcurve"/>
      <point x="485" y="392"/>
      <point x="487" y="418"/>
      <point x="487" y="432" type="qcurve"/>
      <point x="487" y="478"/>
      <point x="456" y="549"/>
      <point x="424" y="576" type="qcurve"/>
      <point x="296" y="470" type="line"/>
      <point x="258" y="513" type="line"/>
      <point x="377" y="607" type="line"/>
      <point x="354" y="618"/>
      <point x="301" y="637"/>
      <point x="271" y="644" type="qcurve"/>
      <point x="320" y="725" type="line"/>
      <point x="359" y="718"/>
      <point x="425" y="694"/>
    </contour>
    <contour>
      <point x="334" y="339" type="qcurve"/>
      <point x="258" y="339"/>
      <point x="158" y="241"/>
      <point x="158" y="168" type="qcurve"/>
      <point x="158" y="126"/>
      <point x="208" y="78"/>
      <point x="252" y="78" type="qcurve"/>
      <point x="285" y="78"/>
      <point x="348" y="107"/>
      <point x="376" y="135" type="qcurve"/>
      <point x="404" y="163"/>
      <point x="450" y="249"/>
      <point x="464" y="302" type="qcurve"/>
      <point x="430" y="322"/>
      <point x="370" y="339"/>
    </contour>
  </outline>
</glyph>
<glyph name="divide" format="2">
  <advance width="614"/>
  <unicode hex="00F7"/>
  <outline>
    <contour>
      <point x="486" y="563" type="qcurve"/>
      <point x="486" y="524"/>
      <point x="432" y="477"/>
      <point x="386" y="477" type="qcurve"/>
      <point x="348" y="477"/>
      <point x="310" y="502"/>
      <point x="310" y="527" type="qcurve"/>
      <point x="310" y="566"/>
      <point x="363" y="614"/>
      <point x="409" y="614" type="qcurve"/>
      <point x="447" y="614"/>
      <point x="486" y="588"/>
    </contour>
    <contour>
      <point x="561" y="283" type="line"/>
      <point x="80" y="283" type="line"/>
      <point x="106" y="374" type="line"/>
      <point x="587" y="374" type="line"/>
    </contour>
    <contour>
      <point x="361" y="130" type="qcurve"/>
      <point x="361" y="90"/>
      <point x="308" y="45"/>
      <point x="260" y="45" type="qcurve"/>
      <point x="223" y="45"/>
      <point x="185" y="70"/>
      <point x="185" y="94" type="qcurve"/>
      <point x="185" y="134"/>
      <point x="238" y="181"/>
      <point x="284" y="181" type="qcurve"/>
      <point x="322" y="181"/>
      <point x="361" y="155"/>
    </contour>
  </outline>
</glyph>
<glyph name="oslash" format="2">
  <advance width="614"/>
  <unicode hex="00F8"/>
  <outline>
    <contour>
      <point x="46" y="189" type="qcurve"/>
      <point x="46" y="313"/>
      <point x="226" y="486"/>
      <point x="356" y="486" type="qcurve"/>
      <point x="388" y="486"/>
      <point x="448" y="469"/>
      <point x="474" y="452" type="qcurve"/>
      <point x="556" y="542" type="line"/>
      <point x="672" y="542" type="line"/>
      <point x="527" y="403" type="line"/>
      <point x="547" y="377"/>
      <point x="568" y="315"/>
      <point x="568" y="281" type="qcurve"/>
      <point x="568" y="158"/>
      <point x="388" y="-15"/>
      <point x="258" y="-15" type="qcurve"/>
      <point x="226" y="-15"/>
      <point x="166" y="2"/>
      <point x="140" y="18" type="qcurve"/>
      <point x="58" y="-71" type="line"/>
      <point x="-58" y="-71" type="line"/>
      <point x="87" y="66" type="line"/>
      <point x="67" y="92"/>
      <point x="46" y="155"/>
    </contour>
    <contour>
      <point x="162" y="194" type="qcurve"/>
      <point x="162" y="142"/>
      <point x="225" y="77"/>
      <point x="276" y="77" type="qcurve"/>
      <point x="347" y="77"/>
      <point x="452" y="197"/>
      <point x="452" y="276" type="qcurve"/>
      <point x="452" y="328"/>
      <point x="389" y="393"/>
      <point x="338" y="393" type="qcurve"/>
      <point x="266" y="393"/>
      <point x="162" y="273"/>
    </contour>
  </outline>
</glyph>
<glyph name="thorn" format="2">
  <advance width="614"/>
  <unicode hex="00FE"/>
  <outline>
    <contour>
      <point x="62" y="-230" type="line"/>
      <point x="-50" y="-230" type="line"/>
      <point x="220" y="710" type="line"/>
      <point x="332" y="710" type="line"/>
      <point x="247" y="415" type="line"/>
      <point x="290" y="450"/>
      <point x="368" y="482"/>
      <point x="410" y="482" type="qcurve"/>
      <point x="483" y="482"/>
      <point x="574" y="383"/>
      <point x="574" y="300" type="qcurve"/>
      <point x="574" y="166"/>
      <point x="384" y="-8"/>
      <point x="234" y="-8" type="qcurve"/>
      <point x="209" y="-8"/>
      <point x="157" y="-2"/>
      <point x="130" y="5" type="qcurve"/>
    </contour>
    <contour>
      <point x="457" y="286" type="qcurve"/>
      <point x="457" y="334"/>
      <point x="407" y="389"/>
      <point x="364" y="389" type="qcurve"/>
      <point x="332" y="389"/>
      <point x="266" y="356"/>
      <point x="219" y="316" type="qcurve"/>
      <point x="157" y="100" type="line"/>
      <point x="175" y="92"/>
      <point x="216" y="85"/>
      <point x="238" y="85" type="qcurve"/>
      <point x="335" y="85"/>
      <point x="457" y="202"/>
    </contour>
  </outline>
</glyph>
<glyph name="aogonek" format="2">
  <advance width="614"/>
  <unicode hex="0105"/>
  <outline>
    <contour>
      <point x="235" y="-168" type="qcurve"/>
      <point x="235" y="-135"/>
      <point x="304" y="-56"/>
      <point x="393" y="18" type="qcurve"/>
      <point x="381" y="25"/>
      <point x="363" y="44"/>
      <point x="358" y="57" type="qcurve"/>
      <point x="352" y="57" type="line"/>
      <point x="297" y="23"/>
      <point x="197" y="-7"/>
      <point x="138" y="-7" type="qcurve"/>
      <point x="84" y="-7"/>
      <point x="25" y="46"/>
      <point x="25" y="93" type="qcurve"/>
      <point x="25" y="129"/>
      <point x="51" y="200"/>
      <point x="73" y="222" type="qcurve"/>
      <point x="100" y="249"/>
      <point x="192" y="274"/>
      <point x="283" y="280" type="qcurve"/>
      <point x="422" y="290" type="line"/>
      <point x="426" y="302" type="line"/>
      <point x="432" y="322"/>
      <point x="435" y="338"/>
      <point x="435" y="345" type="qcurve"/>
      <point x="435" y="369"/>
      <point x="387" y="391"/>
      <point x="333" y="391" type="qcurve"/>
      <point x="303" y="391"/>
      <point x="203" y="382"/>
      <point x="144" y="374" type="qcurve"/>
      <point x="169" y="465" type="line"/>
      <point x="228" y="473"/>
      <point x="324" y="480"/>
      <point x="364" y="480" type="qcurve"/>
      <point x="458" y="480"/>
      <point x="548" y="429"/>
      <point x="548" y="376" type="qcurve"/>
      <point x="548" y="361"/>
      <point x="542" y="328"/>
      <point x="535" y="310" type="qcurve"/>
      <point x="478" y="150" type="line"/>
      <point x="473" y="137"/>
      <point x="469" y="118"/>
      <point x="469" y="111" type="qcurve"/>
      <point x="469" y="100"/>
      <point x="484" y="88"/>
      <point x="503" y="85" type="qcurve"/>
      <point x="539" y="79" type="line"/>
      <point x="514" y="-7" type="line"/>
      <point x="484" y="-4"/>
      <point x="441" y="2"/>
      <point x="434" y="3" type="qcurve"/>
      <point x="380" y="-54"/>
      <point x="335" y="-113"/>
      <point x="335" y="-133" type="qcurve"/>
      <point x="335" y="-145"/>
      <point x="353" y="-155"/>
      <point x="377" y="-156" type="qcurve"/>
      <point x="435" y="-160" type="line"/>
      <point x="406" y="-234" type="line"/>
      <point x="333" y="-231" type="line"/>
      <point x="281" y="-229"/>
      <point x="235" y="-200"/>
    </contour>
    <contour>
      <point x="140" y="114" type="qcurve"/>
      <point x="140" y="95"/>
      <point x="163" y="75"/>
      <point x="186" y="75" type="qcurve"/>
      <point x="228" y="75"/>
      <point x="328" y="111"/>
      <point x="371" y="143" type="qcurve"/>
      <point x="398" y="221" type="line"/>
      <point x="298" y="212" type="line"/>
      <point x="239" y="207"/>
      <point x="180" y="192"/>
      <point x="165" y="177" type="qcurve"/>
      <point x="152" y="164"/>
      <point x="140" y="133"/>
    </contour>
  </outline>
</glyph>
<glyph name="dcroat" format="2">
  <advance width="614"/>
  <unicode hex="0111"/>
  <outline>
    <contour>
      <point x="446" y="0" type="line"/>
      <point x="362" y="0" type="line"/>
      <point x="361" y="60" type="line"/>
      <point x="319" y="25"/>
      <point x="238" y="-8"/>
      <point x="194" y="-8" type="qcurve"/>
      <point x="126" y="-8"/>
      <point x="41" y="84"/>
      <point x="41" y="160" type="qcurve"/>
      <point x="41" y="276"/>
      <point x="213" y="427"/>
      <point x="349" y="427" type="qcurve"/>
      <point x="377" y="427"/>
      <point x="427" y="419"/>
      <point x="452" y="410" type="qcurve"/>
      <point x="484" y="523" type="line"/>
      <point x="328" y="523" type="line"/>
      <point x="347" y="589" type="line"/>
      <point x="503" y="589" type="line"/>
      <point x="538" y="710" type="line"/>
      <point x="650" y="710" type="line"/>
      <point x="615" y="589" type="line"/>
      <point x="695" y="589" type="line"/>
      <point x="676" y="523" type="line"/>
      <point x="596" y="523" type="line"/>
    </contour>
    <contour>
      <point x="349" y="341" type="qcurve"/>
      <point x="264" y="341"/>
      <point x="158" y="244"/>
      <point x="158" y="174" type="qcurve"/>
      <point x="158" y="132"/>
      <point x="202" y="85"/>
      <point x="240" y="85" type="qcurve"/>
      <point x="272" y="85"/>
      <point x="334" y="114"/>
      <point x="376" y="147" type="qcurve"/>
      <point x="426" y="323" type="line"/>
      <point x="408" y="332"/>
      <point x="370" y="341"/>
    </contour>
  </outline>
</glyph>
<glyph name="Eogonek" format="2">
  <advance width="614"/>
  <unicode hex="0118"/>
  <outline>
    <contour>
      <point x="233" y="-168" type="qcurve"/>
      <point x="233" y="-136"/>
      <point x="293" y="-64"/>
      <point x="370" y="0" type="qcurve"/>
      <point x="26" y="0" type="line"/>
      <point x="214" y="655" type="line"/>
      <point x="659" y="655" type="line"/>
      <point x="632" y="561" type="line"/>
      <point x="300" y="561" type="line"/>
      <point x="247" y="377" type="line"/>
      <point x="535" y="377" type="line"/>
      <point x="508" y="284" type="line"/>
      <point x="221" y="284" type="line"/>
      <point x="166" y="94" type="line"/>
      <point x="502" y="94" type="line"/>
      <point x="475" y="0" type="line"/>
      <point x="428" y="0" type="line"/>
      <point x="376" y="-54"/>
      <point x="332" y="-113"/>
      <point x="332" y="-133" type="qcurve"/>
      <point x="332" y="-145"/>
      <point x="350" y="-155"/>
      <point x="374" y="-156" type="qcurve"/>
      <point x="433" y="-160" type="line"/>
      <point x="404" y="-234" type="line"/>
      <point x="330" y="-231" type="line"/>
      <point x="279" y="-229"/>
      <point x="233" y="-200"/>
    </contour>
  </outline>
</glyph>
<glyph name="Hbar" format="2">
  <advance width="614"/>
  <unicode hex="0126"/>
  <outline>
    <contour>
      <point x="173" y="468" type="line"/>
      <point x="93" y="468" type="line"/>
      <point x="111" y="530" type="line"/>
      <point x="191" y="530" type="line"/>
      <point x="227" y="655" type="line"/>
      <point x="336" y="655" type="line"/>
      <point x="299" y="527" type="line"/>
      <point x="482" y="527" type="line"/>
      <point x="519" y="655" type="line"/>
      <point x="628" y="655" type="line"/>
      <point x="592" y="530" type="line"/>
      <point x="673" y="530" type="line"/>
      <point x="655" y="468" type="line"/>
      <point x="574" y="468" type="line"/>
      <point x="440" y="0" type="line"/>
      <point x="331" y="0" type="line"/>
      <point x="402" y="248" type="line"/>
      <point x="219" y="248" type="line"/>
      <point x="148" y="0" type="line"/>
      <point x="39" y="0" type="line"/>
    </contour>
    <contour>
      <point x="283" y="471" type="line"/>
      <point x="244" y="335" type="line"/>
      <point x="427" y="335" type="line"/>
      <point x="466" y="471" type="line"/>
    </contour>
  </outline>
</glyph>
<glyph name="Iogonek" format="2">
  <advance width="614"/>
  <unicode hex="012E"/>
  <outline>
    <contour>
      <point x="58" y="0" type="line"/>
      <point x="75" y="59" type="line"/>
      <point x="203" y="85" type="line"/>
      <point x="354" y="573" type="line"/>
      <point x="225" y="596" type="line"/>
      <point x="242" y="655" type="line"/>
      <point x="610" y="655" type="line"/>
      <point x="593" y="596" type="line"/>
      <point x="465" y="570" type="line"/>
      <point x="314" y="82" type="line"/>
      <point x="443" y="59" type="line"/>
      <point x="426" y="0" type="line"/>
      <point x="271" y="0" type="line"/>
      <point x="220" y="-53"/>
      <point x="175" y="-113"/>
      <point x="175" y="-133" type="qcurve"/>
      <point x="175" y="-144"/>
      <point x="195" y="-155"/>
      <point x="218" y="-156" type="qcurve"/>
      <point x="276" y="-160" type="line"/>
      <point x="247" y="-234" type="line"/>
      <point x="174" y="-231" type="line"/>
      <point x="122" y="-228"/>
      <point x="76" y="-199"/>
      <point x="76" y="-168" type="qcurve"/>
      <point x="76" y="-136"/>
      <point x="136" y="-64"/>
      <point x="213" y="0" type="qcurve"/>
    </contour>
  </outline>
</glyph>
<glyph name="iogonek" format="2">
  <advance width="614"/>
  <unicode hex="012F"/>
  <outline>
    <contour>
      <point x="514" y="678" type="qcurve"/>
      <point x="514" y="639"/>
      <point x="458" y="592"/>
      <point x="410" y="592" type="qcurve"/>
      <point x="371" y="592"/>
      <point x="329" y="624"/>
      <point x="329" y="654" type="qcurve"/>
      <point x="329" y="692"/>
      <point x="385" y="740"/>
      <point x="433" y="740" type="qcurve"/>
      <point x="472" y="740"/>
      <point x="514" y="708"/>
    </contour>
    <contour>
      <point x="37" y="0" type="line"/>
      <point x="64" y="95" type="line"/>
      <point x="217" y="95" type="line"/>
      <point x="315" y="376" type="line"/>
      <point x="165" y="376" type="line"/>
      <point x="192" y="471" type="line"/>
      <point x="460" y="471" type="line"/>
      <point x="329" y="95" type="line"/>
      <point x="500" y="95" type="line"/>
      <point x="473" y="0" type="line"/>
      <point x="287" y="0" type="line"/>
      <point x="235" y="-54"/>
      <point x="190" y="-113"/>
      <point x="190" y="-133" type="qcurve"/>
      <point x="190" y="-145"/>
      <point x="209" y="-155"/>
      <point x="233" y="-156" type="qcurve"/>
      <point x="291" y="-160" type="line"/>
      <point x="262" y="-234" type="line"/>
      <point x="189" y="-231" type="line"/>
      <point x="137" y="-229"/>
      <point x="91" y="-200"/>
      <point x="91" y="-168" type="qcurve"/>
      <point x="91" y="-136"/>
      <point x="151" y="-64"/>
      <point x="228" y="0" type="qcurve"/>
    </contour>
  </outline>
</glyph>
<glyph name="dotlessi" format="2">
  <advance width="614"/>
  <unicode hex="0131"/>
  <outline>
    <contour>
      <point x="37" y="0" type="line"/>
      <point x="64" y="95" type="line"/>
      <point x="217" y="95" type="line"/>
      <point x="315" y="376" type="line"/>
      <point x="165" y="376" type="line"/>
      <point x="192" y="471" type="line"/>
      <point x="460" y="471" type="line"/>
      <point x="329" y="95" type="line"/>
      <point x="500" y="95" type="line"/>
      <point x="473" y="0" type="line"/>
    </contour>
  </outline>
</glyph>
<glyph name="Eng" format="2">
  <advance width="614"/>
  <unicode hex="014A"/>
  <outline>
    <contour>
      <point x="256" y="495" type="line"/>
      <point x="119" y="0" type="line"/>
      <point x="16" y="0" type="line"/>
      <point x="204" y="655" type="line"/>
      <point x="324" y="655" type="line"/>
      <point x="414" y="170" type="line"/>
      <point x="548" y="655" type="line"/>
      <point x="652" y="655" type="line"/>
      <point x="457" y="-24" type="line"/>
      <point x="425" y="-137"/>
      <point x="319" y="-223"/>
      <point x="206" y="-230" type="qcurve"/>
      <point x="89" y="-237" type="line"/>
      <point x="89" y="-150" type="line"/>
      <point x="212" y="-141" type="line"/>
      <point x="273" y="-136"/>
      <point x="338" y="-90"/>
      <point x="355" y="-40" type="qcurve"/>
    </contour>
  </outline>
</glyph>
<glyph name="eng" format="2">
  <advance width="614"/>
  <unicode hex="014B"/>
  <outline>
    <contour>
      <point x="553" y="311" type="qcurve"/>
      <point x="471" y="26" type="line"/>
      <point x="448" y="-54"/>
      <point x="403" y="-144"/>
      <point x="373" y="-171" type="qcurve"/>
      <point x="342" y="-199"/>
      <point x="246" y="-228"/>
      <point x="166" y="-233" type="qcurve"/>
      <point x="93" y="-237" type="line"/>
      <point x="93" y="-141" type="line"/>
      <point x="168" y="-136" type="line"/>
      <point x="212" y="-133"/>
      <point x="274" y="-117"/>
      <point x="295" y="-98" type="qcurve"/>
      <point x="317" y="-79"/>
      <point x="348" y="-14"/>
      <point x="362" y="38" type="qcurve"/>
      <point x="436" y="297" type="line"/>
      <point x="440" y="311"/>
      <point x="444" y="331"/>
      <point x="444" y="338" type="qcurve"/>
      <point x="444" y="356"/>
      <point x="422" y="375"/>
      <point x="403" y="375" type="qcurve"/>
      <point x="372" y="375"/>
      <point x="289" y="316"/>
      <point x="201" y="237" type="qcurve"/>
      <point x="133" y="0" type="line"/>
      <point x="20" y="0" type="line"/>
      <point x="155" y="471" type="line"/>
      <point x="256" y="471" type="line"/>
      <point x="228" y="354" type="line"/>
      <point x="311" y="426"/>
      <point x="405" y="479"/>
      <point x="458" y="479" type="qcurve"/>
      <point x="508" y="479"/>
      <point x="565" y="428"/>
      <point x="565" y="383" type="qcurve"/>
      <point x="565" y="368"/>
      <point x="559" y="333"/>
    </contour>
  </outline>
</glyph>
<glyph name="OE" format="2">
  <advance width="614"/>
  <unicode hex="0152"/>
  <outline>
    <contour>
      <point x="514" y="0" type="line"/>
      <point x="233" y="0" type="line"/>
      <point x="133" y="0"/>
      <point x="30" y="102"/>
      <point x="30" y="200" type="qcurve"/>
      <point x="30" y="289"/>
      <point x="104" y="505"/>
      <point x="157" y="558" type="qcurve"/>
      <point x="209" y="610"/>
      <point x="341" y="655"/>
      <point x="444" y="655" type="qcurve"/>
      <point x="702" y="655" type="line"/>
      <point x="676" y="566" type="line"/>
      <point x="496" y="566" type="line"/>
      <point x="441" y="374" type="line"/>
      <point x="602" y="374" type="line"/>
      <point x="577" y="287" type="line"/>
      <point x="416" y="287" type="line"/>
      <point x="360" y="89" type="line"/>
      <point x="540" y="89" type="line"/>
    </contour>
    <contour>
      <point x="250" y="511" type="qcurve"/>
      <point x="206" y="467"/>
      <point x="138" y="269"/>
      <point x="138" y="198" type="qcurve"/>
      <point x="138" y="137"/>
      <point x="190" y="84"/>
      <point x="251" y="84" type="qcurve"/>
      <point x="251" y="84" type="line"/>
      <point x="391" y="570" type="line"/>
      <point x="345" y="567"/>
      <point x="278" y="539"/>
    </contour>
  </outline>
</glyph>
<glyph name="Scedilla" format="2">
  <advance width="614"/>
  <unicode hex="015E"/>
  <outline>
    <contour>
      <point x="301" y="83" type="qcurve"/>
      <point x="363" y="83"/>
      <point x="427" y="129"/>
      <point x="427" y="172" type="qcurve"/>
      <point x="427" y="203"/>
      <point x="388" y="247"/>
      <point x="341" y="273" type="qcurve"/>
      <point x="274" y="309" type="line"/>
      <point x="209" y="344"/>
      <point x="154" y="423"/>
      <point x="154" y="480" type="qcurve"/>
      <point x="154" y="563"/>
      <point x="285" y="666"/>
      <point x="395" y="666" type="qcurve"/>
      <point x="449" y="666"/>
      <point x="552" y="647"/>
      <point x="625" y="623" type="qcurve"/>
      <point x="596" y="527" type="line"/>
      <point x="533" y="549"/>
      <point x="436" y="570"/>
      <point x="392" y="570" type="qcurve"/>
      <point x="331" y="570"/>
      <point x="267" y="526"/>
      <point x="267" y="486" type="qcurve"/>
      <point x="267" y="459"/>
      <point x="300" y="419"/>
      <point x="338" y="398" type="qcurve"/>
      <point x="405" y="361" type="line"/>
      <point x="483" y="318"/>
      <point x="541" y="244"/>
      <point x="541" y="183" type="qcurve"/>
      <point x="541" y="92"/>
      <point x="413" y="-13"/>
      <point x="301" y="-13" type="qcurve"/>
      <point x="291" y="-13" type="line"/>
      <point x="261" y="-64" type="line"/>
      <point x="328" y="-73"/>
      <point x="388" y="-109"/>
      <point x="388" y="-144" type="qcurve"/>
      <point x="388" y="-188"/>
      <point x="333" y="-232"/>
      <point x="269" y="-246" type="qcurve"/>
      <point x="237" y="-253"/>
      <point x="151" y="-265"/>
      <point x="96" y="-270" type="qcurve"/>
      <point x="96" y="-212" type="line"/>
      <point x="132" y="-209"/>
      <point x="188" y="-203"/>
      <point x="210" y="-200" type="qcurve"/>
      <point x="262" y="-192"/>
      <point x="304" y="-174"/>
      <point x="304" y="-155" type="qcurve"/>
      <point x="304" y="-139"/>
      <point x="248" y="-122"/>
      <point x="180" y="-117" type="qcurve"/>
      <point x="177" y="-107" type="line"/>
      <point x="238" y="-10" type="line"/>
      <point x="186" y="-5"/>
      <point x="80" y="24"/>
      <point x="19" y="50" type="qcurve"/>
      <point x="54" y="147" type="line"/>
      <point x="132" y="114"/>
      <point x="251" y="83"/>
    </contour>
  </outline>
</glyph>
<glyph name="uogonek" format="2">
  <advance width="614"/>
  <unicode hex="0173"/>
  <outline>
    <contour>
      <point x="246" y="-168" type="qcurve"/>
      <point x="246" y="-136"/>
      <point x="306" y="-64"/>
      <point x="383" y="0" type="qcurve"/>
      <point x="359" y="0" type="line"/>
      <point x="386" y="116" type="line"/>
      <point x="304" y="44"/>
      <point x="209" y="-9"/>
      <point x="157" y="-9" type="qcurve"/>
      <point x="106" y="-9"/>
      <point x="49" y="42"/>
      <point x="49" y="87" type="qcurve"/>
      <point x="49" y="100"/>
      <point x="55" y="135"/>
      <point x="62" y="160" type="qcurve"/>
      <point x="152" y="471" type="line"/>
      <point x="264" y="471" type="line"/>
      <point x="179" y="174" type="line"/>
      <point x="175" y="162"/>
      <point x="171" y="142"/>
      <point x="171" y="132" type="qcurve"/>
      <point x="171" y="115"/>
      <point x="192" y="96"/>
      <point x="211" y="96" type="qcurve"/>
      <point x="243" y="96"/>
      <point x="327" y="154"/>
      <point x="414" y="232" type="qcurve"/>
      <point x="482" y="471" type="line"/>
      <point x="594" y="471" type="line"/>
      <point x="459" y="0" type="line"/>
      <point x="441" y="0" type="line"/>
      <point x="389" y="-54"/>
      <point x="345" y="-113"/>
      <point x="345" y="-133" type="qcurve"/>
      <point x="345" y="-145"/>
      <point x="363" y="-155"/>
      <point x="387" y="-156" type="qcurve"/>
      <point x="446" y="-160" type="line"/>
      <point x="417" y="-234" type="line"/>
      <point x="343" y="-231" type="line"/>
      <point x="292" y="-229"/>
      <point x="246" y="-200"/>
    </contour>
  </outline>
</glyph>
<glyph name="Schwa" format="2">
  <advance width="614"/>
  <unicode hex="018F"/>
  <outline>
    <contour>
      <point x="608" y="461" type="qcurve"/>
      <point x="608" y="424"/>
      <point x="594" y="338"/>
      <point x="580" y="288" type="qcurve"/>
      <point x="535" y="134"/>
      <point x="372" y="-15"/>
      <point x="247" y="-15" type="qcurve"/>
      <point x="154" y="-15"/>
      <point x="52" y="71"/>
      <point x="52" y="152" type="qcurve"/>
      <point x="52" y="200"/>
      <point x="79" y="318"/>
      <point x="104" y="381" type="qcurve"/>
      <point x="483" y="381" type="line"/>
      <point x="487" y="403"/>
      <point x="492" y="442"/>
      <point x="492" y="458" type="qcurve"/>
      <point x="492" y="518"/>
      <point x="426" y="571"/>
      <point x="350" y="571" type="qcurve"/>
      <point x="325" y="571"/>
      <point x="266" y="565"/>
      <point x="234" y="560" type="qcurve"/>
      <point x="269" y="654" type="line"/>
      <point x="308" y="661"/>
      <point x="347" y="665"/>
      <point x="372" y="665" type="qcurve"/>
      <point x="489" y="665"/>
      <point x="608" y="562"/>
    </contour>
    <contour>
      <point x="165" y="168" type="qcurve"/>
      <point x="165" y="122"/>
      <point x="208" y="79"/>
      <point x="254" y="79" type="qcurve"/>
      <point x="329" y="79"/>
      <point x="423" y="180"/>
      <point x="459" y="293" type="qcurve"/>
      <point x="188" y="293" type="line"/>
      <point x="177" y="259"/>
      <point x="165" y="195"/>
    </contour>
  </outline>
</glyph>
<glyph name="Ohorn" format="2">
  <advance width="614"/>
  <unicode hex="01A0"/>
  <outline>
    <contour>
      <point x="80" y="357" type="qcurve"/>
      <point x="120" y="498"/>
      <point x="292" y="655"/>
      <point x="405" y="655" type="qcurve"/>
      <point x="527" y="655" type="line"/>
      <point x="591" y="655"/>
      <point x="646" y="697"/>
      <point x="669" y="768" type="qcurve"/>
      <point x="771" y="768" type="line"/>
      <point x="740" y="661"/>
      <point x="666" y="590"/>
      <point x="588" y="590" type="qcurve"/>
      <point x="578" y="590"/>
      <point x="559" y="592"/>
      <point x="549" y="594" type="qcurve"/>
      <point x="544" y="589" type="line"/>
      <point x="582" y="563"/>
      <point x="617" y="490"/>
      <point x="617" y="440" type="qcurve"/>
      <point x="617" y="398"/>
      <point x="607" y="336"/>
      <point x="593" y="284" type="qcurve"/>
      <point x="552" y="143"/>
      <point x="379" y="-15"/>
      <point x="266" y="-15" type="qcurve"/>
      <point x="165" y="-15"/>
      <point x="57" y="91"/>
      <point x="57" y="192" type="qcurve"/>
      <point x="57" y="240"/>
      <point x="68" y="312"/>
    </contour>
    <contour>
      <point x="172" y="195" type="qcurve"/>
      <point x="172" y="138"/>
      <point x="223" y="79"/>
      <point x="273" y="79" type="qcurve"/>
      <point x="341" y="79"/>
      <point x="447" y="191"/>
      <point x="477" y="295" type="qcurve"/>
      <point x="490" y="338"/>
      <point x="502" y="414"/>
      <point x="502" y="450" type="qcurve"/>
      <point x="502" y="505"/>
      <point x="449" y="561"/>
      <point x="398" y="561" type="qcurve"/>
      <point x="331" y="561"/>
      <point x="226" y="450"/>
      <point x="196" y="346" type="qcurve"/>
      <point x="184" y="302"/>
      <point x="172" y="227"/>
    </contour>
  </outline>
</glyph>
<glyph name="uhorn" format="2">
  <advance width="614"/>
  <unicode hex="01B0"/>
  <outline>
    <contour>
      <point x="459" y="0" type="line"/>
      <point x="359" y="0" type="line"/>
      <point x="386" y="116" type="line"/>
      <point x="304" y="44"/>
      <point x="209" y="-9"/>
      <point x="157" y="-9" type="qcurve"/>
      <point x="106" y="-9"/>
      <point x="49" y="42"/>
      <point x="49" y="87" type="qcurve"/>
      <point x="49" y="100"/>
      <point x="55" y="135"/>
      <point x="62" y="160" type="qcurve"/>
      <point x="152" y="471" type="line"/>
      <point x="264" y="471" type="line"/>
      <point x="179" y="174" type="line"/>
      <point x="175" y="162"/>
      <point x="171" y="142"/>
      <point x="171" y="132" type="qcurve"/>
      <point x="171" y="115"/>
      <point x="192" y="96"/>
      <point x="211" y="96" type="qcurve"/>
      <point x="243" y="96"/>
      <point x="327" y="154"/>
      <point x="414" y="232" type="qcurve"/>
      <point x="482" y="471" type="line"/>
      <point x="522" y="471" type="line"/>
      <point x="579" y="471"/>
      <point x="632" y="515"/>
      <point x="655" y="583" type="qcurve"/>
      <point x="756" y="583" type="line"/>
      <point x="728" y="490"/>
      <point x="645" y="407"/>
      <point x="575" y="405" type="qcurve"/>
    </contour>
  </outline>
</glyph>
<glyph name="schwa" format="2">
  <advance width="614"/>
  <unicode hex="0259"/>
  <outline>
    <contour>
      <point x="190" y="391" type="qcurve"/>
      <point x="217" y="482" type="line"/>
      <point x="291" y="482"/>
      <point x="398" y="472"/>
      <point x="436" y="462" type="qcurve"/>
      <point x="500" y="445"/>
      <point x="556" y="373"/>
      <point x="556" y="303" type="qcurve"/>
      <point x="556" y="243"/>
      <point x="500" y="124"/>
      <point x="450" y="78" type="qcurve"/>
      <point x="401" y="34"/>
      <point x="281" y="-14"/>
      <point x="216" y="-14" type="qcurve"/>
      <point x="132" y="-14"/>
      <point x="37" y="58"/>
      <point x="37" y="120" type="qcurve"/>
      <point x="37" y="194"/>
      <point x="155" y="270"/>
      <point x="282" y="282" type="qcurve"/>
      <point x="443" y="295" type="line"/>
      <point x="443" y="297"/>
      <point x="443" y="298"/>
      <point x="443" y="300" type="qcurve"/>
      <point x="443" y="355"/>
      <point x="341" y="391"/>
    </contour>
    <contour>
      <point x="148" y="129" type="qcurve"/>
      <point x="148" y="104"/>
      <point x="191" y="75"/>
      <point x="227" y="75" type="qcurve"/>
      <point x="294" y="75"/>
      <point x="409" y="159"/>
      <point x="432" y="223" type="qcurve"/>
      <point x="283" y="207" type="line"/>
      <point x="214" y="200"/>
      <point x="148" y="162"/>
    </contour>
  </outline>
</glyph>
<glyph name="ringhalfleft" format="2">
  <advance width="614"/>
  <unicode hex="02BF"/>
  <outline>
    <contour>
      <point x="287" y="644" type="qcurve"/>
      <point x="329" y="686"/>
      <point x="461" y="725"/>
      <point x="559" y="725" type="qcurve"/>
      <point x="534" y="639" type="line"/>
      <point x="431" y="639"/>
      <point x="330" y="562"/>
      <point x="330" y="482" type="qcurve"/>
      <point x="330" y="441"/>
      <point x="397" y="401"/>
      <point x="466" y="401" type="qcurve"/>
      <point x="441" y="315" type="line"/>
      <point x="336" y="315"/>
      <point x="226" y="400"/>
      <point x="226" y="481" type="qcurve"/>
      <point x="226" y="532"/>
      <point x="257" y="614"/>
    </contour>
  </outline>
</glyph>
<glyph name="gravecmb" format="2">
  <unicode hex="0300"/>
  <outline>
    <contour>
      <point x="12" y="746" type="line"/>
      <point x="190" y="598" type="line"/>
      <point x="148" y="546" type="line"/>
      <point x="-43" y="678" type="line"/>
    </contour>
  </outline>
</glyph>
<glyph name="acutecmb" format="2">
  <unicode hex="0301"/>
  <outline>
    <contour>
      <point x="31" y="547" type="line"/>
      <point x="2" y="605" type="line"/>
      <point x="264" y="750" type="line"/>
      <point x="298" y="678" type="line"/>
    </contour>
  </outline>
</glyph>
<glyph name="tildecmb" format="2">
  <unicode hex="0303"/>
  <outline>
    <contour>
      <point x="172" y="547" type="qcurve"/>
      <point x="152" y="547"/>
      <point x="115" y="576"/>
      <point x="90" y="610" type="qcurve"/>
      <point x="67" y="641"/>
      <point x="50" y="657"/>
      <point x="43" y="657" type="qcurve"/>
      <point x="30" y="657"/>
      <point x="-8" y="608"/>
      <point x="-49" y="543" type="qcurve"/>
      <point x="-109" y="577" type="line"/>
      <point x="-53" y="668"/>
      <point x="18" y="743"/>
      <point x="55" y="743" type="qcurve"/>
      <point x="75" y="743"/>
      <point x="111" y="714"/>
      <point x="137" y="679" type="qcurve"/>
      <point x="160" y="648"/>
      <point x="176" y="632"/>
      <point x="184" y="632" type="qcurve"/>
      <point x="196" y="632"/>
      <point x="235" y="682"/>
      <point x="276" y="746" type="qcurve"/>
      <point x="336" y="713" type="line"/>
      <point x="280" y="622"/>
      <point x="209" y="547"/>
    </contour>
  </outline>
</glyph>
<glyph name="macroncmb" format="2">
  <unicode hex="0304"/>
  <outline>
    <contour>
      <point x="269" y="587" type="line"/>
      <point x="-67" y="587" type="line"/>
      <point x="-44" y="666" type="line"/>
      <point x="292" y="666" type="line"/>
    </contour>
  </outline>
</glyph>
<glyph name="brevecmb" format="2">
  <unicode hex="0306"/>
  <outline>
    <contour>
      <point x="104" y="624" type="qcurve"/>
      <point x="146" y="624"/>
      <point x="223" y="683"/>
      <point x="261" y="745" type="qcurve"/>
      <point x="330" y="718" type="line"/>
      <point x="280" y="629"/>
      <point x="169" y="547"/>
      <point x="98" y="547" type="qcurve"/>
      <point x="25" y="547"/>
      <point x="-50" y="638"/>
      <point x="-50" y="727" type="qcurve"/>
      <point x="15" y="745" type="line"/>
      <point x="19" y="683"/>
      <point x="62" y="624"/>
    </contour>
  </outline>
</glyph>
<glyph name="dieresiscmb" format="2">
  <unicode hex="0308"/>
  <outline>
    <contour>
      <point x="66" y="647" type="qcurve"/>
      <point x="66" y="612"/>
      <point x="21" y="567"/>
      <point x="-14" y="567" type="qcurve"/>
      <point x="-43" y="567"/>
      <point x="-72" y="588"/>
      <point x="-72" y="610" type="qcurve"/>
      <point x="-72" y="643"/>
      <point x="-26" y="692"/>
      <point x="9" y="692" type="qcurve"/>
      <point x="37" y="692"/>
      <point x="66" y="669"/>
    </contour>
    <contour>
      <point x="299" y="647" type="qcurve"/>
      <point x="299" y="612"/>
      <point x="253" y="567"/>
      <point x="218" y="567" type="qcurve"/>
      <point x="190" y="567"/>
      <point x="160" y="589"/>
      <point x="160" y="610" type="qcurve"/>
      <point x="160" y="644"/>
      <point x="208" y="692"/>
      <point x="242" y="692" type="qcurve"/>
      <point x="269" y="692"/>
      <point x="299" y="669"/>
    </contour>
  </outline>
</glyph>
<glyph name="ringcmb" format="2">
  <unicode hex="030A"/>
  <outline>
    <contour>
      <point x="-28" y="654" type="qcurve"/>
      <point x="-28" y="719"/>
      <point x="72" y="807"/>
      <point x="149" y="807" type="qcurve"/>
      <point x="210" y="807"/>
      <point x="283" y="749"/>
      <point x="283" y="700" type="qcurve"/>
      <point x="283" y="635"/>
      <point x="183" y="547"/>
      <point x="105" y="547" type="qcurve"/>
      <point x="45" y="547"/>
      <point x="-28" y="605"/>
    </contour>
    <contour>
      <point x="45" y="661" type="qcurve"/>
      <point x="45" y="637"/>
      <point x="83" y="613"/>
      <point x="120" y="613" type="qcurve"/>
      <point x="159" y="613"/>
      <point x="210" y="659"/>
      <point x="210" y="693" type="qcurve"/>
      <point x="210" y="717"/>
      <point x="171" y="741"/>
      <point x="134" y="741" type="qcurve"/>
      <point x="95" y="741"/>
      <point x="45" y="696"/>
    </contour>
  </outline>
</glyph>
<glyph name="dieresisbelowcmb" format="2">
  <unicode hex="0324"/>
  <outline>
    <contour>
      <point x="-158" y="-141" type="qcurve"/>
      <point x="-158" y="-176"/>
      <point x="-204" y="-221"/>
      <point x="-239" y="-221" type="qcurve"/>
      <point x="-268" y="-221"/>
      <point x="-297" y="-200"/>
      <point x="-297" y="-178" type="qcurve"/>
      <point x="-297" y="-145"/>
      <point x="-251" y="-96"/>
      <point x="-216" y="-96" type="qcurve"/>
      <point x="-188" y="-96"/>
      <point x="-158" y="-119"/>
    </contour>
    <contour>
      <point x="74" y="-141" type="qcurve"/>
      <point x="74" y="-176"/>
      <point x="29" y="-221"/>
      <point x="-6" y="-221" type="qcurve"/>
      <point x="-34" y="-221"/>
      <point x="-64" y="-199"/>
      <point x="-64" y="-178" type="qcurve"/>
      <point x="-64" y="-144"/>
      <point x="-17" y="-96"/>
      <point x="17" y="-96" type="qcurve"/>
      <point x="44" y="-96"/>
      <point x="74" y="-119"/>
    </contour>
  </outline>
</glyph>
<glyph name="ogonekcmb" format="2">
  <unicode hex="0328"/>
  <outline>
    <contour>
      <point x="-231" y="-168" type="qcurve"/>
      <point x="-231" y="-134"/>
      <point x="-157" y="-51"/>
      <point x="-60" y="28" type="qcurve"/>
      <point x="-26" y="9" type="line"/>
      <point x="-83" y="-50"/>
      <point x="-131" y="-112"/>
      <point x="-131" y="-133" type="qcurve"/>
      <point x="-131" y="-145"/>
      <point x="-113" y="-155"/>
      <point x="-89" y="-156" type="qcurve"/>
      <point x="-31" y="-160" type="line"/>
      <point x="-60" y="-234" type="line"/>
      <point x="-133" y="-231" type="line"/>
      <point x="-185" y="-229"/>
      <point x="-231" y="-200"/>
    </contour>
  </outline>
</glyph>
<glyph name="brevebelowcmb" format="2">
  <unicode hex="032E"/>
  <outline>
    <contour>
      <point x="-133" y="-197" type="qcurve"/>
      <point x="-91" y="-197"/>
      <point x="-15" y="-138"/>
      <point x="24" y="-76" type="qcurve"/>
      <point x="92" y="-104" type="line"/>
      <point x="43" y="-193"/>
      <point x="-68" y="-275"/>
      <point x="-139" y="-275" type="qcurve"/>
      <point x="-212" y="-275"/>
      <point x="-288" y="-183"/>
      <point x="-288" y="-95" type="qcurve"/>
      <point x="-222" y="-76" type="line"/>
      <point x="-219" y="-138"/>
      <point x="-176" y="-197"/>
    </contour>
  </outline>
</glyph>
<glyph name="macronbelowcmb" format="2">
  <unicode hex="0331"/>
  <outline>
    <contour>
      <point x="43" y="-196" type="line"/>
      <point x="-294" y="-196" type="line"/>
      <point x="-271" y="-116" type="line"/>
      <point x="66" y="-116" type="line"/>
    </contour>
  </outline>
</glyph>
<glyph name="bahtthai" format="2">
  <advance width="614"/>
  <unicode hex="0E3F"/>
  <outline>
    <contour>
      <point x="284" y="0" type="qcurve"/>
      <point x="243" y="-142" type="line"/>
      <point x="165" y="-142" type="line"/>
      <point x="206" y="0" type="line"/>
      <point x="18" y="0" type="line"/>
      <point x="206" y="655" type="line"/>
      <point x="394" y="655" type="line"/>
      <point x="436" y="796" type="line"/>
      <point x="514" y="796" type="line"/>
      <point x="473" y="655" type="line"/>
      <point x="549" y="651"/>
      <point x="631" y="583"/>
      <point x="631" y="525" type="qcurve"/>
      <point x="631" y="452"/>
      <point x="529" y="355"/>
      <point x="431" y="335" type="qcurve"/>
      <point x="431" y="331" type="line"/>
      <point x="491" y="318"/>
      <point x="556" y="248"/>
      <point x="556" y="196" type="qcurve"/>
      <point x="556" y="103"/>
      <point x="417" y="3"/>
    </contour>
    <contour>
      <point x="510" y="501" type="qcurve"/>
      <point x="510" y="534"/>
      <point x="465" y="568"/>
      <point x="420" y="568" type="qcurve"/>
      <point x="292" y="568" type="line"/>
      <point x="236" y="374" type="line"/>
      <point x="334" y="379" type="line"/>
      <point x="418" y="384"/>
      <point x="510" y="448"/>
    </contour>
    <contour>
      <point x="443" y="202" type="qcurve"/>
      <point x="443" y="243"/>
      <point x="379" y="288"/>
      <point x="313" y="291" type="qcurve"/>
      <point x="214" y="296" type="line"/>
      <point x="154" y="86" type="line"/>
      <point x="290" y="86" type="line"/>
      <point x="362" y="86"/>
      <point x="443" y="149"/>
    </contour>
  </outline>
</glyph>
<glyph name="Hcedilla" format="2">
  <advance width="614"/>
  <unicode hex="1E28"/>
  <outline>
    <contour>
      <point x="17" y="0" type="line"/>
      <point x="205" y="655" type="line"/>
      <point x="317" y="655" type="line"/>
      <point x="238" y="377" type="line"/>
      <point x="458" y="377" type="line"/>
      <point x="538" y="655" type="line"/>
      <point x="650" y="655" type="line"/>
      <point x="462" y="0" type="line"/>
      <point x="350" y="0" type="line"/>
      <point x="431" y="283" type="line"/>
      <point x="211" y="283" type="line"/>
      <point x="130" y="0" type="line"/>
      <point x="100" y="0" type="line"/>
      <point x="65" y="-59" type="line"/>
      <point x="132" y="-68"/>
      <point x="192" y="-104"/>
      <point x="192" y="-139" type="qcurve"/>
      <point x="192" y="-183"/>
      <point x="137" y="-227"/>
      <point x="73" y="-241" type="qcurve"/>
      <point x="41" y="-248"/>
      <point x="-45" y="-260"/>
      <point x="-100" y="-265" type="qcurve"/>
      <point x="-100" y="-207" type="line"/>
      <point x="-64" y="-204"/>
      <point x="-8" y="-198"/>
      <point x="14" y="-195" type="qcurve"/>
      <point x="66" y="-187"/>
      <point x="108" y="-169"/>
      <point x="108" y="-150" type="qcurve"/>
      <point x="108" y="-134"/>
      <point x="52" y="-117"/>
      <point x="-16" y="-112" type="qcurve"/>
      <point x="-19" y="-102" type="line"/>
      <point x="45" y="0" type="line"/>
    </contour>
  </outline>
</glyph>
<glyph name="uni1E9E" format="2">
  <advance width="614"/>
  <unicode hex="1E9E"/>
  <outline>
    <contour>
      <point x="451" y="174" type="qcurve"/>
      <point x="451" y="199"/>
      <point x="405" y="260"/>
      <point x="348" y="311" type="qcurve"/>
      <point x="357" y="344" type="line"/>
      <point x="518" y="547" type="line"/>
      <point x="491" y="562"/>
      <point x="442" y="576"/>
      <point x="412" y="576" type="qcurve"/>
      <point x="350" y="576"/>
      <point x="269" y="505"/>
      <point x="248" y="433" type="qcurve"/>
      <point x="124" y="0" type="line"/>
      <point x="11" y="0" type="line"/>
      <point x="138" y="445" type="line"/>
      <point x="172" y="563"/>
      <point x="301" y="670"/>
      <point x="410" y="670" type="qcurve"/>
      <point x="474" y="670"/>
      <point x="592" y="625"/>
      <point x="642" y="582" type="qcurve"/>
      <point x="643" y="561" type="line"/>
      <point x="463" y="334" type="line"/>
      <point x="517" y="284"/>
      <point x="561" y="214"/>
      <point x="562" y="175" type="qcurve"/>
      <point x="562" y="93"/>
      <point x="446" y="-6"/>
      <point x="346" y="-6" type="qcurve"/>
      <point x="325" y="-6"/>
      <point x="287" y="-2"/>
      <point x="258" y="3" type="qcurve"/>
      <point x="281" y="92" type="line"/>
      <point x="300" y="88"/>
      <point x="335" y="84"/>
      <point x="356" y="84" type="qcurve"/>
      <point x="400" y="84"/>
      <point x="451" y="134"/>
    </contour>
  </outline>
</glyph>
<glyph name="endash" format="2">
  <advance width="614"/>
  <unicode hex="2013"/>
  <outline>
    <contour>
      <point x="91" y="274" type="line"/>
      <point x="123" y="384" type="line"/>
      <point x="577" y="384" type="line"/>
      <point x="545" y="274" type="line"/>
    </contour>
  </outline>
</glyph>
<glyph name="emdash" format="2">
  <advance width="614"/>
  <unicode hex="2014"/>
  <outline>
    <contour>
      <point x="47" y="223" type="line"/>
      <point x="78" y="333" type="line"/>
      <point x="592" y="333" type="line"/>
      <point x="561" y="223" type="line"/>
    </contour>
  </outline>
</glyph>
<glyph name="quotedblright" format="2">
  <advance width="614"/>
  <unicode hex="201D"/>
  <outline>
    <contour>
      <point x="439" y="405" type="qcurve"/>
      <point x="348" y="405" type="line"/>
      <point x="348" y="407" type="line"/>
      <point x="427" y="486"/>
      <point x="505" y="597"/>
      <point x="550" y="710" type="qcurve"/>
      <point x="695" y="710" type="line"/>
      <point x="640" y="591"/>
      <point x="533" y="467"/>
    </contour>
    <contour>
      <point x="183" y="405" type="qcurve"/>
      <point x="92" y="405" type="line"/>
      <point x="92" y="407" type="line"/>
      <point x="172" y="486"/>
      <point x="249" y="598"/>
      <point x="293" y="710" type="qcurve"/>
      <point x="439" y="710" type="line"/>
      <point x="382" y="589"/>
      <point x="276" y="466"/>
    </contour>
  </outline>
</glyph>
<glyph name="bullet" format="2">
  <advance width="614"/>
  <unicode hex="2022"/>
  <outline>
    <contour>
      <point x="181" y="291" type="qcurve"/>
      <point x="181" y="369"/>
      <point x="284" y="476"/>
      <point x="363" y="476" type="qcurve"/>
      <point x="425" y="476"/>
      <point x="491" y="423"/>
      <point x="491" y="373" type="qcurve"/>
      <point x="491" y="295"/>
      <point x="388" y="189"/>
      <point x="309" y="189" type="qcurve"/>
      <point x="247" y="189"/>
      <point x="181" y="241"/>
    </contour>
  </outline>
</glyph>
<glyph name="twodotleader" format="2">
  <advance width="614"/>
  <unicode hex="2025"/>
  <outline>
    <contour>
      <point x="198" y="115" type="qcurve"/>
      <point x="198" y="61"/>
      <point x="137" y="-15"/>
      <point x="89" y="-15" type="qcurve"/>
      <point x="54" y="-15"/>
      <point x="20" y="14"/>
      <point x="20" y="43" type="qcurve"/>
      <point x="20" y="95"/>
      <point x="82" y="172"/>
      <point x="129" y="172" type="qcurve"/>
      <point x="164" y="172"/>
      <point x="198" y="144"/>
    </contour>
    <contour>
      <point x="505" y="115" type="qcurve"/>
      <point x="505" y="61"/>
      <point x="444" y="-15"/>
      <point x="397" y="-15" type="qcurve"/>
      <point x="362" y="-15"/>
      <point x="327" y="14"/>
      <point x="327" y="43" type="qcurve"/>
      <point x="327" y="96"/>
      <point x="389" y="172"/>
      <point x="437" y="172" type="qcurve"/>
      <point x="471" y="172"/>
      <point x="505" y="144"/>
    </contour>
  </outline>
</glyph>
<glyph name="ellipsis" format="2">
  <advance width="614"/>
  <unicode hex="2026"/>
  <outline>
    <contour>
      <point x="69" y="147" type="qcurve"/>
      <point x="97" y="147"/>
      <point x="124" y="123"/>
      <point x="124" y="99" type="qcurve"/>
      <point x="124" y="52"/>
      <point x="77" y="-15"/>
      <point x="41" y="-15" type="qcurve"/>
      <point x="12" y="-15"/>
      <point x="-15" y="9"/>
      <point x="-15" y="34" type="qcurve"/>
      <point x="-15" y="80"/>
      <point x="33" y="147"/>
    </contour>
    <contour>
      <point x="274" y="147" type="qcurve"/>
      <point x="302" y="147"/>
      <point x="329" y="123"/>
      <point x="329" y="99" type="qcurve"/>
      <point x="329" y="52"/>
      <point x="282" y="-15"/>
      <point x="246" y="-15" type="qcurve"/>
      <point x="217" y="-15"/>
      <point x="190" y="9"/>
      <point x="190" y="34" type="qcurve"/>
      <point x="190" y="80"/>
      <point x="238" y="147"/>
    </contour>
    <contour>
      <point x="479" y="147" type="qcurve"/>
      <point x="507" y="147"/>
      <point x="534" y="123"/>
      <point x="534" y="99" type="qcurve"/>
      <point x="534" y="52"/>
      <point x="487" y="-15"/>
      <point x="451" y="-15" type="qcurve"/>
      <point x="422" y="-15"/>
      <point x="395" y="9"/>
      <point x="395" y="34" type="qcurve"/>
      <point x="395" y="80"/>
      <point x="443" y="147"/>
    </contour>
  </outline>
</glyph>
<glyph name="guilsinglleft" format="2">
  <advance width="614"/>
  <unicode hex="2039"/>
  <outline>
    <contour>
      <point x="276" y="226" type="line"/>
      <point x="407" y="84" type="line"/>
      <point x="378" y="-15" type="line"/>
      <point x="132" y="189" type="line"/>
      <point x="158" y="281" type="line"/>
      <point x="522" y="484" type="line"/>
      <point x="488" y="364" type="line"/>
    </contour>
  </outline>
</glyph>
<glyph name="naira" format="2">
  <advance width="614"/>
  <unicode hex="20A6"/>
  <outline>
    <contour>
      <point x="183" y="209" type="line"/>
      <point x="127" y="0" type="line"/>
      <point x="35" y="0" type="line"/>
      <point x="94" y="207" type="line"/>
      <point x="11" y="207" type="line"/>
      <point x="29" y="272" type="line"/>
      <point x="113" y="272" type="line"/>
      <point x="147" y="389" type="line"/>
      <point x="62" y="389" type="line"/>
      <point x="81" y="454" type="line"/>
      <point x="165" y="454" type="line"/>
      <point x="223" y="655" type="line"/>
      <point x="372" y="655" type="line"/>
      <point x="372" y="452" type="line"/>
      <point x="487" y="452" type="line"/>
      <point x="541" y="655" type="line"/>
      <point x="632" y="655" type="line"/>
      <point x="574" y="454" type="line"/>
      <point x="659" y="454" type="line"/>
      <point x="640" y="389" type="line"/>
      <point x="556" y="389" type="line"/>
      <point x="522" y="272" type="line"/>
      <point x="607" y="272" type="line"/>
      <point x="588" y="207" type="line"/>
      <point x="503" y="207" type="line"/>
      <point x="444" y="0" type="line"/>
      <point x="296" y="0" type="line"/>
      <point x="296" y="209" type="line"/>
    </contour>
    <contour>
      <point x="297" y="601" type="line"/>
      <point x="287" y="601" type="line"/>
      <point x="195" y="254" type="line"/>
      <point x="296" y="254" type="line"/>
    </contour>
    <contour>
      <point x="372" y="407" type="line"/>
      <point x="371" y="57" type="line"/>
      <point x="382" y="57" type="line"/>
      <point x="475" y="407" type="line"/>
    </contour>
  </outline>
</glyph>
<glyph name="won" format="2">
  <advance width="614"/>
  <unicode hex="20A9"/>
  <outline>
    <contour>
      <point x="361" y="405" type="line"/>
      <point x="350" y="405" type="line"/>
      <point x="165" y="0" type="line"/>
      <point x="45" y="0" type="line"/>
      <point x="116" y="311" type="line"/>
      <point x="36" y="311" type="line"/>
      <point x="55" y="377" type="line"/>
      <point x="131" y="377" type="line"/>
      <point x="194" y="655" type="line"/>
      <point x="260" y="655" type="line"/>
      <point x="193" y="372" type="line"/>
      <point x="279" y="372" type="line"/>
      <point x="342" y="509" type="line"/>
      <point x="426" y="509" type="line"/>
      <point x="410" y="372" type="line"/>
      <point x="497" y="372" type="line"/>
      <point x="593" y="655" type="line"/>
      <point x="662" y="655" type="line"/>
      <point x="565" y="377" type="line"/>
      <point x="641" y="377" type="line"/>
      <point x="622" y="311" type="line"/>
      <point x="542" y="311" type="line"/>
      <point x="433" y="0" type="line"/>
      <point x="314" y="0" type="line"/>
    </contour>
    <contour>
      <point x="380" y="106" type="line"/>
      <point x="406" y="106" type="line"/>
      <point x="479" y="320" type="line"/>
      <point x="404" y="320" type="line"/>
    </contour>
    <contour>
      <point x="181" y="320" type="line"/>
      <point x="130" y="106" type="line"/>
      <point x="157" y="106" type="line"/>
      <point x="255" y="320" type="line"/>
    </contour>
  </outline>
</glyph>
<glyph name="dong" format="2">
  <advance width="614"/>
  <unicode hex="20AB"/>
  <outline>
    <contour>
      <point x="447" y="-1" type="line"/>
      <point x="364" y="-1" type="line"/>
      <point x="365" y="67" type="line"/>
      <point x="321" y="28"/>
      <point x="240" y="-8"/>
      <point x="196" y="-8" type="qcurve"/>
      <point x="125" y="-8"/>
      <point x="37" y="77"/>
      <point x="37" y="149" type="qcurve"/>
      <point x="37" y="264"/>
      <point x="208" y="415"/>
      <point x="341" y="415" type="qcurve"/>
      <point x="367" y="415"/>
      <point x="421" y="409"/>
      <point x="450" y="402" type="qcurve"/>
      <point x="478" y="498" type="line"/>
      <point x="323" y="498" type="line"/>
      <point x="342" y="563" type="line"/>
      <point x="497" y="563" type="line"/>
      <point x="523" y="655" type="line"/>
      <point x="635" y="655" type="line"/>
      <point x="609" y="563" type="line"/>
      <point x="690" y="563" type="line"/>
      <point x="671" y="498" type="line"/>
      <point x="590" y="498" type="line"/>
    </contour>
    <contour>
      <point x="349" y="333" type="qcurve"/>
      <point x="263" y="333"/>
      <point x="156" y="236"/>
      <point x="156" y="165" type="qcurve"/>
      <point x="156" y="128"/>
      <point x="202" y="83"/>
      <point x="240" y="83" type="qcurve"/>
      <point x="272" y="83"/>
      <point x="334" y="114"/>
      <point x="378" y="150" type="qcurve"/>
      <point x="426" y="319" type="line"/>
      <point x="409" y="326"/>
      <point x="370" y="333"/>
    </contour>
    <contour>
      <point x="391" y="-169" type="line"/>
      <point x="-42" y="-169" type="line"/>
      <point x="-21" y="-96" type="line"/>
      <point x="412" y="-96" type="line"/>
    </contour>
  </outline>
</glyph>
<glyph name="peso" format="2">
  <advance width="614"/>
  <unicode hex="20B1"/>
  <outline>
    <contour>
      <point x="152" y="409" type="line"/>
      <point x="68" y="409" type="line"/>
      <point x="87" y="474" type="line"/>
      <point x="171" y="474" type="line"/>
      <point x="223" y="655" type="line"/>
      <point x="399" y="655" type="line"/>
      <point x="490" y="655"/>
      <point x="592" y="564"/>
      <point x="592" y="485" type="qcurve"/>
      <point x="592" y="482"/>
      <point x="592" y="477"/>
      <point x="592" y="474" type="qcurve"/>
      <point x="669" y="474" type="line"/>
      <point x="650" y="409" type="line"/>
      <point x="582" y="409" type="line"/>
      <point x="557" y="321"/>
      <point x="393" y="222"/>
      <point x="271" y="222" type="qcurve"/>
      <point x="212" y="222" type="line"/>
      <point x="148" y="0" type="line"/>
      <point x="35" y="0" type="line"/>
    </contour>
    <contour>
      <point x="475" y="485" type="qcurve"/>
      <point x="475" y="524"/>
      <point x="425" y="561"/>
      <point x="373" y="561" type="qcurve"/>
      <point x="309" y="561" type="line"/>
      <point x="238" y="313" type="line"/>
      <point x="292" y="313" type="line"/>
      <point x="376" y="313"/>
      <point x="475" y="407"/>
    </contour>
  </outline>
</glyph>
<glyph name="uni20BD" format="2">
  <advance width="614"/>
  <unicode hex="20BD"/>
  <outline>
    <contour>
      <point x="79" y="124" type="line"/>
      <point x="-10" y="124" type="line"/>
      <point x="9" y="189" type="line"/>
      <point x="97" y="189" type="line"/>
      <point x="125" y="284" type="line"/>
      <point x="36" y="284" type="line"/>
      <point x="55" y="349" type="line"/>
      <point x="143" y="349" type="line"/>
      <point x="231" y="655" type="line"/>
      <point x="472" y="655" type="line"/>
      <point x="562" y="655"/>
      <point x="659" y="576"/>
      <point x="659" y="503" type="qcurve"/>
      <point x="659" y="459"/>
      <point x="631" y="386"/>
      <point x="604" y="359" type="qcurve"/>
      <point x="566" y="321"/>
      <point x="443" y="284"/>
      <point x="356" y="284" type="qcurve"/>
      <point x="236" y="284" type="line"/>
      <point x="208" y="189" type="line"/>
      <point x="417" y="189" type="line"/>
      <point x="398" y="124" type="line"/>
      <point x="190" y="124" type="line"/>
      <point x="154" y="0" type="line"/>
      <point x="43" y="0" type="line"/>
    </contour>
    <contour>
      <point x="539" y="484" type="qcurve"/>
      <point x="539" y="524"/>
      <point x="492" y="561"/>
      <point x="443" y="561" type="qcurve"/>
      <point x="315" y="561" type="line"/>
      <point x="254" y="349" type="line"/>
      <point x="357" y="349" type="line"/>
      <point x="441" y="349"/>
      <point x="539" y="422"/>
    </contour>
  </outline>
</glyph>
<glyph name="trademark" format="2">
  <advance width="614"/>
  <unicode hex="2122"/>
  <outline>
    <contour>
      <point x="238" y="652" type="line"/>
      <point x="155" y="652" type="line"/>
      <point x="171" y="710" type="line"/>
      <point x="399" y="710" type="line"/>
      <point x="383" y="652" type="line"/>
      <point x="301" y="652" type="line"/>
      <point x="230" y="404" type="line"/>
      <point x="167" y="404" type="line"/>
    </contour>
    <contour>
      <point x="616" y="710" type="line"/>
      <point x="692" y="710" type="line"/>
      <point x="615" y="404" type="line"/>
      <point x="562" y="404" type="line"/>
      <point x="634" y="666" type="line"/>
      <point x="518" y="496" type="line"/>
      <point x="501" y="496" type="line"/>
      <point x="479" y="661" type="line"/>
      <point x="403" y="404" type="line"/>
      <point x="348" y="404" type="line"/>
      <point x="448" y="710" type="line"/>
      <point x="515" y="710" type="line"/>
      <point x="533" y="593" type="line"/>
    </contour>
  </outline>
</glyph>
<glyph name="minus" format="2">
  <advance width="614"/>
  <unicode hex="2212"/>
  <outline>
    <contour>
      <point x="561" y="283" type="line"/>
      <point x="80" y="283" type="line"/>
      <point x="106" y="374" type="line"/>
      <point x="587" y="374" type="line"/>
    </contour>
  </outline>
</glyph>
<glyph name="approxequal" format="2">
  <advance width="614"/>
  <unicode hex="2248"/>
  <outline>
    <contour>
      <point x="251" y="581" type="qcurve"/>
      <point x="276" y="581"/>
      <point x="318" y="556"/>
      <point x="368" y="512" type="qcurve"/>
      <point x="412" y="474"/>
      <point x="440" y="453"/>
      <point x="451" y="453" type="qcurve"/>
      <point x="464" y="453"/>
      <point x="497" y="496"/>
      <point x="554" y="590" type="qcurve"/>
      <point x="635" y="542" type="line"/>
      <point x="570" y="430"/>
      <point x="493" y="347"/>
      <point x="447" y="347" type="qcurve"/>
      <point x="422" y="347"/>
      <point x="380" y="372"/>
      <point x="330" y="416" type="qcurve"/>
      <point x="283" y="457"/>
      <point x="257" y="475"/>
      <point x="247" y="475" type="qcurve"/>
      <point x="234" y="475"/>
      <point x="200" y="433"/>
      <point x="154" y="358" type="qcurve"/>
      <point x="74" y="406" type="line"/>
      <point x="130" y="504"/>
      <point x="205" y="581"/>
    </contour>
    <contour>
      <point x="209" y="312" type="qcurve"/>
      <point x="234" y="312"/>
      <point x="276" y="287"/>
      <point x="325" y="243" type="qcurve"/>
      <point x="366" y="207"/>
      <point x="397" y="185"/>
      <point x="408" y="185" type="qcurve"/>
      <point x="422" y="185"/>
      <point x="456" y="228"/>
      <point x="501" y="301" type="qcurve"/>
      <point x="581" y="254" type="line"/>
      <point x="524" y="156"/>
      <point x="450" y="78"/>
      <point x="404" y="78" type="qcurve"/>
      <point x="380" y="78"/>
      <point x="339" y="102"/>
      <point x="287" y="147" type="qcurve"/>
      <point x="246" y="184"/>
      <point x="216" y="206"/>
      <point x="204" y="206" type="qcurve"/>
      <point x="191" y="206"/>
      <point x="158" y="164"/>
      <point x="101" y="70" type="qcurve"/>
      <point x="21" y="117" type="line"/>
      <point x="85" y="229"/>
      <point x="162" y="312"/>
    </contour>
  </outline>
</glyph>
<glyph name="notequal" format="2">
  <advance width="614"/>
  <unicode hex="2260"/>
  <outline>
    <contour>
      <point x="175" y="179" type="line"/>
      <point x="68" y="179" type="line"/>
      <point x="94" y="270" type="line"/>
      <point x="244" y="266" type="line"/>
      <point x="299" y="334" type="line"/>
      <point x="343" y="392" type="line"/>
      <point x="127" y="387" type="line"/>
      <point x="153" y="478" type="line"/>
      <point x="407" y="478" type="line"/>
      <point x="523" y="633" type="line"/>
      <point x="616" y="633" type="line"/>
      <point x="491" y="478" type="line"/>
      <point x="599" y="478" type="line"/>
      <point x="573" y="387" type="line"/>
      <point x="421" y="391" type="line"/>
      <point x="374" y="333" type="line"/>
      <point x="323" y="265" type="line"/>
      <point x="540" y="270" type="line"/>
      <point x="514" y="179" type="line"/>
      <point x="259" y="179" type="line"/>
      <point x="147" y="28" type="line"/>
      <point x="54" y="28" type="line"/>
    </contour>
  </outline>
</glyph>
<glyph name="lessequal" format="2">
  <advance width="614"/>
  <unicode hex="2264"/>
  <outline>
    <contour>
      <point x="126" y="384" type="line"/>
      <point x="155" y="486" type="line"/>
      <point x="645" y="669" type="line"/>
      <point x="614" y="560" type="line"/>
      <point x="249" y="429" type="line"/>
      <point x="539" y="298" type="line"/>
      <point x="510" y="198" type="line"/>
    </contour>
    <contour>
      <point x="454" y="0" type="line"/>
      <point x="16" y="0" type="line"/>
      <point x="42" y="91" type="line"/>
      <point x="480" y="91" type="line"/>
    </contour>
  </outline>
</glyph>
<glyph name="greaterequal" format="2">
  <advance width="614"/>
  <unicode hex="2265"/>
  <outline>
    <contour>
      <point x="600" y="484" type="line"/>
      <point x="571" y="382" type="line"/>
      <point x="81" y="198" type="line"/>
      <point x="112" y="308" type="line"/>
      <point x="478" y="438" type="line"/>
      <point x="187" y="570" type="line"/>
      <point x="216" y="669" type="line"/>
    </contour>
    <contour>
      <point x="487" y="91" type="line"/>
      <point x="461" y="0" type="line"/>
      <point x="24" y="0" type="line"/>
      <point x="50" y="91" type="line"/>
    </contour>
  </outline>
</glyph>
<glyph name="brevetilde.cap" format="2">
  <outline>
    <contour>
      <point x="148" y="1093" type="qcurve"/>
      <point x="169" y="1093"/>
      <point x="201" y="1075"/>
      <point x="226" y="1052" type="qcurve"/>
      <point x="251" y="1031"/>
      <point x="272" y="1017"/>
      <point x="282" y="1017" type="qcurve"/>
      <point x="299" y="1017"/>
      <point x="339" y="1058"/>
      <point x="371" y="1104" type="qcurve"/>
      <point x="424" y="1071" type="line"/>
      <point x="378" y="1000"/>
      <point x="316" y="939"/>
      <point x="283" y="939" type="qcurve"/>
      <point x="263" y="939"/>
      <point x="229" y="957"/>
      <point x="204" y="980" type="qcurve"/>
      <point x="179" y="1001"/>
      <point x="158" y="1015"/>
      <point x="148" y="1015" type="qcurve"/>
      <point x="135" y="1015"/>
      <point x="101" y="978"/>
      <point x="69" y="933" type="qcurve"/>
      <point x="16" y="964" type="line"/>
      <point x="61" y="1034"/>
      <point x="119" y="1093"/>
    </contour>
    <contour>
      <point x="157" y="809" type="qcurve"/>
      <point x="203" y="809"/>
      <point x="277" y="854"/>
      <point x="306" y="900" type="qcurve"/>
      <point x="372" y="867" type="line"/>
      <point x="335" y="800"/>
      <point x="225" y="731"/>
      <point x="156" y="731" type="qcurve"/>
      <point x="77" y="731"/>
      <point x="-1" y="807"/>
      <point x="-1" y="884" type="qcurve"/>
      <point x="62" y="906" type="line"/>
      <point x="65" y="857"/>
      <point x="112" y="809"/>
    </contour>
  </outline>
</glyph>
<glyph name="brevetilde" format="2">
  <outline>
    <contour>
      <point x="114" y="929" type="qcurve"/>
      <point x="133" y="929"/>
      <point x="163" y="911"/>
      <point x="190" y="884" type="qcurve"/>
      <point x="224" y="853"/>
      <point x="235" y="846"/>
      <point x="242" y="846" type="qcurve"/>
      <point x="257" y="846"/>
      <point x="296" y="889"/>
      <point x="325" y="935" type="qcurve"/>
      <point x="383" y="906" type="line"/>
      <point x="333" y="830"/>
      <point x="270" y="768"/>
      <point x="239" y="768" type="qcurve"/>
      <point x="221" y="768"/>
      <point x="191" y="786"/>
      <point x="163" y="814" type="qcurve"/>
      <point x="132" y="842"/>
      <point x="119" y="851"/>
      <point x="112" y="851" type="qcurve"/>
      <point x="97" y="851"/>
      <point x="59" y="811"/>
      <point x="32" y="768" type="qcurve"/>
      <point x="-25" y="797" type="line"/>
      <point x="22" y="870"/>
      <point x="84" y="929"/>
    </contour>
    <contour>
      <point x="104" y="624" type="qcurve"/>
      <point x="147" y="624"/>
      <point x="223" y="679"/>
      <point x="258" y="735" type="qcurve"/>
      <point x="328" y="707" type="line"/>
      <point x="283" y="627"/>
      <point x="167" y="547"/>
      <point x="96" y="547" type="qcurve"/>
      <point x="21" y="547"/>
      <point x="-51" y="631"/>
      <point x="-51" y="718" type="qcurve"/>
      <point x="13" y="735" type="line"/>
      <point x="16" y="678"/>
      <point x="61" y="624"/>
    </contour>
  </outline>
</glyph>
<glyph name="caroncmb.cap" format="2">
  <outline>
    <contour>
      <point x="124" y="731" type="line"/>
      <point x="-17" y="869" type="line"/>
      <point x="27" y="920" type="line"/>
      <point x="155" y="818" type="line"/>
      <point x="341" y="920" type="line"/>
      <point x="370" y="866" type="line"/>
      <point x="164" y="731" type="line"/>
    </contour>
  </outline>
</glyph>
<glyph name="circumflexacute" format="2">
  <outline>
    <contour>
      <point x="261" y="721" type="line"/>
      <point x="236" y="775" type="line"/>
      <point x="424" y="873" type="line"/>
      <point x="454" y="805" type="line"/>
    </contour>
    <contour>
      <point x="-56" y="547" type="line"/>
      <point x="-86" y="597" type="line"/>
      <point x="108" y="735" type="line"/>
      <point x="160" y="735" type="line"/>
      <point x="284" y="586" type="line"/>
      <point x="235" y="547" type="line"/>
      <point x="119" y="651" type="line"/>
    </contour>
  </outline>
</glyph>
<glyph name="circumflexgrave.cap" format="2">
  <outline>
    <contour>
      <point x="305" y="1048" type="line"/>
      <point x="435" y="954" type="line"/>
      <point x="394" y="895" type="line"/>
      <point x="251" y="975" type="line"/>
    </contour>
    <contour>
      <point x="-14" y="731" type="line"/>
      <point x="-37" y="790" type="line"/>
      <point x="163" y="907" type="line"/>
      <point x="203" y="907" type="line"/>
      <point x="346" y="780" type="line"/>
      <point x="299" y="731" type="line"/>
      <point x="168" y="821" type="line"/>
    </contour>
  </outline>
</glyph>
<glyph name="circumflexgrave" format="2">
  <outline>
    <contour>
      <point x="254" y="872" type="line"/>
      <point x="373" y="758" type="line"/>
      <point x="329" y="712" type="line"/>
      <point x="197" y="813" type="line"/>
    </contour>
    <contour>
      <point x="-56" y="547" type="line"/>
      <point x="-86" y="597" type="line"/>
      <point x="108" y="735" type="line"/>
      <point x="160" y="735" type="line"/>
      <point x="284" y="586" type="line"/>
      <point x="235" y="547" type="line"/>
      <point x="119" y="651" type="line"/>
    </contour>
  </outline>
</glyph>
<glyph name="circumflextilde.cap" format="2">
  <outline>
    <contour>
      <point x="156" y="1097" type="qcurve"/>
      <point x="176" y="1097"/>
      <point x="208" y="1079"/>
      <point x="234" y="1055" type="qcurve"/>
      <point x="259" y="1034"/>
      <point x="280" y="1020"/>
      <point x="290" y="1020" type="qcurve"/>
      <point x="306" y="1020"/>
      <point x="346" y="1061"/>
      <point x="379" y="1108" type="qcurve"/>
      <point x="432" y="1074" type="line"/>
      <point x="386" y="1003"/>
      <point x="324" y="942"/>
      <point x="291" y="942" type="qcurve"/>
      <point x="271" y="942"/>
      <point x="237" y="960"/>
      <point x="211" y="983" type="qcurve"/>
      <point x="185" y="1006"/>
      <point x="165" y="1019"/>
      <point x="156" y="1019" type="qcurve"/>
      <point x="143" y="1019"/>
      <point x="109" y="982"/>
      <point x="77" y="936" type="qcurve"/>
      <point x="24" y="967" type="line"/>
      <point x="70" y="1038"/>
      <point x="127" y="1097"/>
    </contour>
    <contour>
      <point x="-14" y="731" type="line"/>
      <point x="-37" y="790" type="line"/>
      <point x="163" y="907" type="line"/>
      <point x="203" y="907" type="line"/>
      <point x="346" y="780" type="line"/>
      <point x="299" y="731" type="line"/>
      <point x="168" y="821" type="line"/>
    </contour>
  </outline>
</glyph>
<glyph name="dieresiscaron" format="2">
  <outline>
    <contour>
      <point x="135" y="715" type="line"/>
      <point x="4" y="865" type="line"/>
      <point x="47" y="904" type="line"/>
      <point x="162" y="800" type="line"/>
      <point x="338" y="904" type="line"/>
      <point x="368" y="858" type="line"/>
      <point x="175" y="715" type="line"/>
    </contour>
    <contour>
      <point x="65" y="636" type="qcurve"/>
      <point x="65" y="606"/>
      <point x="21" y="567"/>
      <point x="-14" y="567" type="qcurve"/>
      <point x="-43" y="567"/>
      <point x="-71" y="587"/>
      <point x="-71" y="607" type="qcurve"/>
      <point x="-71" y="635"/>
      <point x="-25" y="677"/>
      <point x="9" y="677" type="qcurve"/>
      <point x="36" y="677"/>
      <point x="65" y="656"/>
    </contour>
    <contour>
      <point x="297" y="636" type="qcurve"/>
      <point x="297" y="606"/>
      <point x="253" y="567"/>
      <point x="218" y="567" type="qcurve"/>
      <point x="191" y="567"/>
      <point x="162" y="588"/>
      <point x="162" y="607" type="qcurve"/>
      <point x="162" y="637"/>
      <point x="208" y="677"/>
      <point x="242" y="677" type="qcurve"/>
      <point x="268" y="677"/>
      <point x="297" y="656"/>
    </contour>
  </outline>
</glyph>
<glyph name="dieresismacron" format="2">
  <outline>
    <contour>
      <point x="308" y="747" type="line"/>
      <point x="-13" y="747" type="line"/>
      <point x="10" y="827" type="line"/>
      <point x="331" y="827" type="line"/>
    </contour>
    <contour>
      <point x="65" y="636" type="qcurve"/>
      <point x="65" y="606"/>
      <point x="21" y="567"/>
      <point x="-14" y="567" type="qcurve"/>
      <point x="-43" y="567"/>
      <point x="-71" y="587"/>
      <point x="-71" y="607" type="qcurve"/>
      <point x="-71" y="635"/>
      <point x="-25" y="677"/>
      <point x="9" y="677" type="qcurve"/>
      <point x="36" y="677"/>
      <point x="65" y="656"/>
    </contour>
    <contour>
      <point x="297" y="636" type="qcurve"/>
      <point x="297" y="606"/>
      <point x="253" y="567"/>
      <point x="218" y="567" type="qcurve"/>
      <point x="191" y="567"/>
      <point x="162" y="588"/>
      <point x="162" y="607" type="qcurve"/>
      <point x="162" y="637"/>
      <point x="208" y="677"/>
      <point x="242" y="677" type="qcurve"/>
      <point x="268" y="677"/>
      <point x="297" y="656"/>
    </contour>
  </outline>
</glyph>
<glyph name="dotaccentcmb.cap" format="2">
  <outline>
    <contour>
      <point x="243" y="839" type="qcurve"/>
      <point x="243" y="800"/>
      <point x="196" y="751"/>
      <point x="157" y="751" type="qcurve"/>
      <point x="126" y="751"/>
      <point x="94" y="775"/>
      <point x="94" y="799" type="qcurve"/>
      <point x="94" y="834"/>
      <point x="144" y="886"/>
      <point x="180" y="886" type="qcurve"/>
      <point x="210" y="886"/>
      <point x="243" y="862"/>
    </contour>
  </outline>
</glyph>
<glyph name="fracbar" format="2">
  <advance width="614"/>
  <outline>
    <contour>
      <point x="614" y="411" type="line"/>
      <point x="317" y="186" type="line"/>
      <point x="60" y="-86" type="line"/>
      <point x="0" y="-17" type="line"/>
      <point x="299" y="208" type="line"/>
      <point x="554" y="480" type="line"/>
    </contour>
  </outline>
</glyph>
<glyph name="middotcat.cap" format="2">
  <advance width="614"/>
  <outline>
    <contour>
      <point x="367" y="411" type="qcurve"/>
      <point x="367" y="358"/>
      <point x="305" y="282"/>
      <point x="261" y="282" type="qcurve"/>
      <point x="230" y="282"/>
      <point x="196" y="312"/>
      <point x="196" y="339" type="qcurve"/>
      <point x="196" y="391"/>
      <point x="258" y="468"/>
      <point x="301" y="468" type="qcurve"/>
      <point x="333" y="468"/>
      <point x="367" y="439"/>
    </contour>
  </outline>
</glyph>
<glyph name="middotcat" format="2">
  <advance width="614"/>
  <outline>
    <contour>
      <point x="423" y="397" type="qcurve"/>
      <point x="423" y="344"/>
      <point x="361" y="268"/>
      <point x="317" y="268" type="qcurve"/>
      <point x="286" y="268"/>
      <point x="252" y="298"/>
      <point x="252" y="325" type="qcurve"/>
      <point x="252" y="377"/>
      <point x="314" y="454"/>
      <point x="357" y="454" type="qcurve"/>
      <point x="389" y="454"/>
      <point x="423" y="425"/>
    </contour>
  </outline>
</glyph>
<glyph name="one.den" format="2">
  <advance width="614"/>
  <outline>
    <contour>
      <point x="392" y="0" type="line"/>
      <point x="116" y="0" type="line"/>
      <point x="135" y="66" type="line"/>
      <point x="227" y="66" type="line"/>
      <point x="305" y="282" type="line"/>
      <point x="190" y="234" type="line"/>
      <point x="211" y="311" type="line"/>
      <point x="382" y="380" type="line"/>
      <point x="416" y="380" type="line"/>
      <point x="304" y="66" type="line"/>
      <point x="411" y="66" type="line"/>
    </contour>
  </outline>
</glyph>
<glyph name="ringcmb.cap" format="2">
  <outline>
    <contour>
      <point x="346" y="876" type="qcurve"/>
      <point x="346" y="811"/>
      <point x="247" y="731"/>
      <point x="163" y="731" type="qcurve"/>
      <point x="92" y="731"/>
      <point x="11" y="790"/>
      <point x="11" y="840" type="qcurve"/>
      <point x="11" y="905"/>
      <point x="110" y="986"/>
      <point x="194" y="986" type="qcurve"/>
      <point x="265" y="986"/>
      <point x="346" y="927"/>
    </contour>
    <contour>
      <point x="92" y="844" type="qcurve"/>
      <point x="92" y="821"/>
      <point x="134" y="796"/>
      <point x="173" y="796" type="qcurve"/>
      <point x="215" y="796"/>
      <point x="265" y="838"/>
      <point x="265" y="872" type="qcurve"/>
      <point x="265" y="896"/>
      <point x="223" y="921"/>
      <point x="184" y="921" type="qcurve"/>
      <point x="142" y="921"/>
      <point x="92" y="878"/>
    </contour>
  </outline>
</glyph>
<glyph name="seven.den" format="2">
  <advance width="614"/>
  <outline>
    <contour>
      <point x="482" y="320" type="line"/>
      <point x="229" y="0" type="line"/>
      <point x="141" y="0" type="line"/>
      <point x="141" y="2" type="line"/>
      <point x="396" y="312" type="line"/>
      <point x="396" y="314" type="line"/>
      <point x="184" y="314" type="line"/>
      <point x="203" y="380" type="line"/>
      <point x="498" y="380" type="line"/>
    </contour>
  </outline>
</glyph>
<glyph name="three.den" format="2">
  <advance width="614"/>
  <outline>
    <contour>
      <point x="369" y="316" type="line"/>
      <point x="194" y="316" type="line"/>
      <point x="214" y="380" type="line"/>
      <point x="490" y="380" type="line"/>
      <point x="490" y="344" type="line"/>
      <point x="340" y="221" type="line"/>
      <point x="340" y="219" type="line"/>
      <point x="393" y="211"/>
      <point x="441" y="171"/>
      <point x="441" y="136" type="qcurve"/>
      <point x="441" y="72"/>
      <point x="321" y="3"/>
      <point x="197" y="-5" type="qcurve"/>
      <point x="114" y="-10" type="line"/>
      <point x="126" y="58" type="line"/>
      <point x="206" y="63" type="line"/>
      <point x="281" y="68"/>
      <point x="358" y="101"/>
      <point x="358" y="128" type="qcurve"/>
      <point x="358" y="152"/>
      <point x="305" y="169"/>
      <point x="237" y="170" type="qcurve"/>
      <point x="234" y="203" type="line"/>
      <point x="369" y="314" type="line"/>
    </contour>
  </outline>
</glyph>
<glyph name="tildecmb.cap" format="2">
  <outline>
    <contour>
      <point x="323" y="914" type="qcurve"/>
      <point x="383" y="882" type="line"/>
      <point x="331" y="801"/>
      <point x="261" y="731"/>
      <point x="225" y="731" type="qcurve"/>
      <point x="206" y="731"/>
      <point x="172" y="753"/>
      <point x="147" y="783" type="qcurve"/>
      <point x="125" y="807"/>
      <point x="101" y="827"/>
      <point x="91" y="827" type="qcurve"/>
      <point x="77" y="827"/>
      <point x="38" y="781"/>
      <point x="3" y="727" type="qcurve"/>
      <point x="-57" y="760" type="line"/>
      <point x="-5" y="841"/>
      <point x="64" y="910"/>
      <point x="101" y="910" type="qcurve"/>
      <point x="120" y="910"/>
      <point x="153" y="888"/>
      <point x="179" y="858" type="qcurve"/>
      <point x="201" y="833"/>
      <point x="225" y="814"/>
      <point x="235" y="814" type="qcurve"/>
      <point x="249" y="814"/>
      <point x="288" y="861"/>
    </contour>
  </outline>
</glyph>
<glyph name="two.den" format="2">
  <advance width="614"/>
  <outline>
    <contour>
      <point x="401" y="0" type="line"/>
      <point x="105" y="0" type="line"/>
      <point x="105" y="46" type="line"/>
      <point x="290" y="181" type="line"/>
      <point x="346" y="221"/>
      <point x="394" y="274"/>
      <point x="394" y="297" type="qcurve"/>
      <point x="394" y="312"/>
      <point x="372" y="329"/>
      <point x="353" y="329" type="qcurve"/>
      <point x="329" y="329"/>
      <point x="273" y="301"/>
      <point x="221" y="265" type="qcurve"/>
      <point x="184" y="319" type="line"/>
      <point x="236" y="359"/>
      <point x="317" y="394"/>
      <point x="362" y="394" type="qcurve"/>
      <point x="411" y="394"/>
      <point x="477" y="343"/>
      <point x="477" y="304" type="qcurve"/>
      <point x="477" y="266"/>
      <point x="420" y="199"/>
      <point x="356" y="154" type="qcurve"/>
      <point x="233" y="68" type="line"/>
      <point x="233" y="66" type="line"/>
      <point x="421" y="66" type="line"/>
    </contour>
  </outline>
</glyph>
